<?xml version="1.0" standalone="no"?>
<!DOCTYPE svg PUBLIC "-//W3C//DTD SVG 1.1//EN" "http://www.w3.org/Graphics/SVG/1.1/DTD/svg11.dtd">
<svg width="132px" height="26px" version="1.1" xmlns="http://www.w3.org/2000/svg" xmlns:xlink="http://www.w3.org/1999/xlink" xml:space="preserve" style="fill-rule:evenodd;clip-rule:evenodd;stroke-linecap:round;stroke-linejoin:round;stroke-miterlimit:1.41421;">
    <g>
        <g>
            <path d="M129.474,25.364C130.587,25.364 131.489,24.462 131.489,23.3493L131.489,2.65074C131.489,1.53802 130.587,0.635977 129.474,0.635977L2.52603,0.635977C1.41331,0.635977 0.511272,1.53802 0.511272,2.65074L0.511272,23.3493C0.511272,24.462 1.41331,25.364 2.52603,25.364L129.474,25.364Z" style="fill:url(#tag1);stroke-width:1px;stroke:rgb(116,116,116);"/>
        </g>
        <g id="Layer 1">
            <path d="M12.4125,12.3172L9.00256,8.88488C8.71971,8.60165 8.71971,8.14327 9.00256,7.86004C9.28579,7.57681 9.74455,7.57681 10.0274,7.86004L15.4684,13.3085C15.6882,13.5246 16.0501,13.5246 16.2663,13.3085L21.7143,7.86004C21.9975,7.57681 22.4559,7.57681 22.7391,7.86004C23.0224,8.14327 23.0224,8.60165 22.7391,8.88488L19.3255,12.3172L22.7391,15.7267C23.0224,16.0103 23.0224,16.4687 22.7391,16.7515C22.4559,17.0351 21.9975,17.0351 21.7143,16.7515L18.3044,13.3457C18.3044,13.3457 17.2385,14.4302 17.0451,14.6236C16.7429,14.918 16.3255,15.101 15.8709,15.101C15.4087,15.101 14.9914,14.9147 14.6895,14.6128C14.492,14.419 13.4336,13.3457 13.4336,13.3457L10.0274,16.7515C9.74455,17.0351 9.28579,17.0351 9.00256,16.7515C8.71971,16.4687 8.71971,16.0103 9.00256,15.7267L12.4125,12.3172ZM6.9268,17.337C6.9268,18.1606 7.59388,18.8277 8.41747,18.8277L23.3242,18.8277C24.1478,18.8277 24.8149,18.1606 24.8149,17.337L24.8149,7.27495C24.8149,6.45135 24.1478,5.78427 23.3242,5.78427L8.41747,5.78427C7.59388,5.78427 6.9268,6.45135 6.9268,7.27495L6.9268,17.337Z" style="fill:white;"/>
        </g>
        <g id="Newsletter Abonieren">
            <path d="M30.5256,17.2883L30.5256,7.98265L32.3537,7.98265L36.1623,14.197L36.1623,7.98265L37.9079,7.98265L37.9079,17.2883L36.0226,17.2883L32.2712,11.22L32.2712,17.2883L30.5256,17.2883Z" style="fill:rgb(64,63,64);fill-rule:nonzero;"/>
            <path d="M43.7858,15.1428L45.5632,15.4411C45.3347,16.0928 44.9739,16.589 44.4809,16.9297C43.9879,17.2703 43.3711,17.4407 42.6306,17.4407C41.4584,17.4407 40.5908,17.0577 40.028,16.2917C39.5837,15.6781 39.3615,14.9037 39.3615,13.9685C39.3615,12.8513 39.6535,11.9764 40.2375,11.3437C40.8215,10.7111 41.5599,10.3948 42.4528,10.3948C43.4558,10.3948 44.2471,10.7259 44.8268,11.3882C45.4066,12.0504 45.6838,13.065 45.6584,14.4319L41.1896,14.4319C41.2023,14.9608 41.3462,15.3724 41.6213,15.6665C41.8963,15.9606 42.2391,16.1076 42.6496,16.1076C42.9289,16.1076 43.1638,16.0315 43.3542,15.8791C43.5446,15.7268 43.6885,15.4813 43.7858,15.1428ZM43.8874,13.3401C43.8747,12.8238 43.7414,12.4313 43.4875,12.1626C43.2336,11.8939 42.9247,11.7595 42.5607,11.7595C42.1714,11.7595 41.8498,11.9013 41.5959,12.1848C41.342,12.4683 41.2171,12.8534 41.2214,13.3401L43.8874,13.3401Z" style="fill:rgb(64,63,64);fill-rule:nonzero;"/>
            <path d="M48.3688,17.2883L46.236,10.5471L47.9689,10.5471L49.2321,14.9651L50.3937,10.5471L52.114,10.5471L53.2375,14.9651L54.5261,10.5471L56.2844,10.5471L54.1198,17.2883L52.4059,17.2883L51.2443,12.9529L50.1017,17.2883L48.3688,17.2883Z" style="fill:rgb(64,63,64);fill-rule:nonzero;"/>
            <path d="M56.5954,15.365L58.3854,15.092C58.4616,15.439 58.6161,15.7025 58.8488,15.8823C59.0816,16.0622 59.4074,16.1521 59.8264,16.1521C60.2876,16.1521 60.6346,16.0674 60.8674,15.8982C61.0239,15.7797 61.1022,15.621 61.1022,15.4221C61.1022,15.2867 61.0599,15.1745 60.9753,15.0857C60.8864,15.001 60.6875,14.9227 60.3786,14.8508C58.9398,14.5334 58.0279,14.2436 57.6428,13.9812C57.1096,13.6172 56.843,13.1116 56.843,12.4641C56.843,11.8801 57.0736,11.3892 57.5349,10.9914C57.9961,10.5936 58.7113,10.3948 59.6804,10.3948C60.6029,10.3948 61.2884,10.545 61.737,10.8454C62.1856,11.1459 62.4945,11.5902 62.6638,12.1784L60.9816,12.4895C60.9097,12.2271 60.7732,12.0261 60.5722,11.8865C60.3712,11.7468 60.0845,11.677 59.7121,11.677C59.2424,11.677 58.9059,11.7426 58.7028,11.8738C58.5674,11.9669 58.4997,12.0875 58.4997,12.2356C58.4997,12.3625 58.5589,12.4704 58.6774,12.5593C58.8382,12.6778 59.3937,12.845 60.3437,13.0608C61.2937,13.2766 61.9571,13.5411 62.3337,13.8542C62.7061,14.1716 62.8923,14.6138 62.8923,15.1809C62.8923,15.7987 62.6341,16.3298 62.1179,16.7741C61.6016,17.2185 60.8377,17.4407 59.8264,17.4407C58.9081,17.4407 58.1813,17.2545 57.6459,16.8821C57.1106,16.5097 56.7604,16.004 56.5954,15.365Z" style="fill:rgb(64,63,64);fill-rule:nonzero;"/>
            <rect x="64.4538" y="7.98265" width="1.78369" height="9.30566" style="fill:rgb(64,63,64);fill-rule:nonzero;"/>
            <path d="M71.9694,15.1428L73.7468,15.4411C73.5183,16.0928 73.1575,16.589 72.6645,16.9297C72.1715,17.2703 71.5547,17.4407 70.8141,17.4407C69.6419,17.4407 68.7744,17.0577 68.2116,16.2917C67.7673,15.6781 67.5451,14.9037 67.5451,13.9685C67.5451,12.8513 67.8371,11.9764 68.4211,11.3437C69.0051,10.7111 69.7435,10.3948 70.6364,10.3948C71.6393,10.3948 72.4307,10.7259 73.0104,11.3882C73.5902,12.0504 73.8674,13.065 73.842,14.4319L69.3732,14.4319C69.3859,14.9608 69.5298,15.3724 69.8049,15.6665C70.0799,15.9606 70.4227,16.1076 70.8332,16.1076C71.1125,16.1076 71.3474,16.0315 71.5378,15.8791C71.7282,15.7268 71.8721,15.4813 71.9694,15.1428ZM72.071,13.3401C72.0583,12.8238 71.925,12.4313 71.6711,12.1626C71.4172,11.8939 71.1083,11.7595 70.7443,11.7595C70.355,11.7595 70.0334,11.9013 69.7795,12.1848C69.5256,12.4683 69.4007,12.8534 69.405,13.3401L72.071,13.3401Z" style="fill:rgb(64,63,64);fill-rule:nonzero;"/>
            <path d="M78.3869,10.5471L78.3869,11.969L77.1682,11.969L77.1682,14.6858C77.1682,15.2359 77.1798,15.5565 77.2031,15.6474C77.2263,15.7384 77.2792,15.8135 77.3618,15.8728C77.4443,15.932 77.5448,15.9616 77.6633,15.9616C77.8283,15.9616 78.0674,15.9045 78.3806,15.7903L78.5329,17.1741C78.1182,17.3518 77.6485,17.4407 77.1237,17.4407C76.8021,17.4407 76.5122,17.3867 76.2541,17.2788C75.996,17.1709 75.8066,17.0312 75.686,16.8598C75.5654,16.6885 75.4818,16.4568 75.4352,16.1648C75.3972,15.9574 75.3781,15.5385 75.3781,14.9079L75.3781,11.969L74.5593,11.969L74.5593,10.5471L75.3781,10.5471L75.3781,9.20774L77.1682,8.16673L77.1682,10.5471L78.3869,10.5471Z" style="fill:rgb(64,63,64);fill-rule:nonzero;"/>
            <path d="M82.716,10.5471L82.716,11.969L81.4973,11.969L81.4973,14.6858C81.4973,15.2359 81.5089,15.5565 81.5322,15.6474C81.5554,15.7384 81.6083,15.8135 81.6909,15.8728C81.7734,15.932 81.8739,15.9616 81.9924,15.9616C82.1574,15.9616 82.3965,15.9045 82.7097,15.7903L82.862,17.1741C82.4473,17.3518 81.9776,17.4407 81.4528,17.4407C81.1312,17.4407 80.8413,17.3867 80.5832,17.2788C80.3251,17.1709 80.1357,17.0312 80.0151,16.8598C79.8945,16.6885 79.8109,16.4568 79.7643,16.1648C79.7263,15.9574 79.7072,15.5385 79.7072,14.9079L79.7072,11.969L78.8884,11.969L78.8884,10.5471L79.7072,10.5471L79.7072,9.20774L81.4973,8.16673L81.4973,10.5471L82.716,10.5471Z" style="fill:rgb(64,63,64);fill-rule:nonzero;"/>
            <path d="M87.8576,15.1428L89.6349,15.4411C89.4064,16.0928 89.0457,16.589 88.5527,16.9297C88.0597,17.2703 87.4429,17.4407 86.7023,17.4407C85.5301,17.4407 84.6626,17.0577 84.0998,16.2917C83.6555,15.6781 83.4333,14.9037 83.4333,13.9685C83.4333,12.8513 83.7253,11.9764 84.3093,11.3437C84.8933,10.7111 85.6317,10.3948 86.5246,10.3948C87.5275,10.3948 88.3189,10.7259 88.8986,11.3882C89.4784,12.0504 89.7556,13.065 89.7302,14.4319L85.2614,14.4319C85.2741,14.9608 85.418,15.3724 85.6931,15.6665C85.9681,15.9606 86.3109,16.1076 86.7214,16.1076C87.0007,16.1076 87.2355,16.0315 87.426,15.8791C87.6164,15.7268 87.7603,15.4813 87.8576,15.1428ZM87.9592,13.3401C87.9465,12.8238 87.8132,12.4313 87.5593,12.1626C87.3054,11.8939 86.9964,11.7595 86.6325,11.7595C86.2432,11.7595 85.9216,11.9013 85.6677,12.1848C85.4138,12.4683 85.2889,12.8534 85.2932,13.3401L87.9592,13.3401Z" style="fill:rgb(64,63,64);fill-rule:nonzero;"/>
            <path d="M92.8913,17.2883L91.1076,17.2883L91.1076,10.5471L92.7643,10.5471L92.7643,11.5056C93.0479,11.0528 93.3028,10.7545 93.5292,10.6106C93.7556,10.4667 94.0127,10.3948 94.3005,10.3948C94.7067,10.3948 95.0982,10.5069 95.4748,10.7312L94.9225,12.2864C94.6221,12.0917 94.3428,11.9944 94.0847,11.9944C93.835,11.9944 93.6234,12.0631 93.4499,12.2007C93.2764,12.3382 93.1399,12.5868 93.0405,12.9465C92.941,13.3062 92.8913,14.0595 92.8913,15.2063L92.8913,17.2883Z" style="fill:rgb(64,63,64);fill-rule:nonzero;"/>
            <rect x="96.0397" y="13.0227" width="3.50391" height="1.78369" style="fill:rgb(64,63,64);fill-rule:nonzero;"/>
            <path d="M108.976,17.2883L106.932,17.2883L106.12,15.1745L102.4,15.1745L101.632,17.2883L99.6389,17.2883L103.263,7.98265L105.25,7.98265L108.976,17.2883ZM105.517,13.6067L104.235,10.1535L102.978,13.6067L105.517,13.6067Z" style="fill:rgb(64,63,64);fill-rule:nonzero;"/>
            <path d="M109.884,17.2883L109.884,7.98265L111.668,7.98265L111.668,11.3342C112.218,10.7079 112.869,10.3948 113.623,10.3948C114.444,10.3948 115.123,10.692 115.66,11.2866C116.198,11.8812 116.466,12.7349 116.466,13.8479C116.466,14.9989 116.192,15.8855 115.644,16.5075C115.096,17.1296 114.431,17.4407 113.648,17.4407C113.263,17.4407 112.883,17.3444 112.509,17.1518C112.134,16.9593 111.812,16.6747 111.541,16.2981L111.541,17.2883L109.884,17.2883ZM111.655,13.7717C111.655,14.47 111.765,14.9862 111.985,15.3205C112.294,15.7945 112.704,16.0315 113.216,16.0315C113.61,16.0315 113.945,15.8633 114.223,15.5268C114.5,15.1904 114.638,14.6604 114.638,13.9367C114.638,13.1666 114.499,12.6111 114.219,12.2705C113.94,11.9298 113.583,11.7595 113.147,11.7595C112.719,11.7595 112.364,11.9256 112.08,12.2578C111.797,12.59 111.655,13.0946 111.655,13.7717Z" style="fill:rgb(64,63,64);fill-rule:nonzero;"/>
            <path d="M117.488,13.8225C117.488,13.23 117.634,12.6566 117.926,12.1023C118.218,11.5479 118.632,11.1247 119.167,10.8327C119.703,10.5408 120.3,10.3948 120.961,10.3948C121.98,10.3948 122.816,10.7259 123.468,11.3882C124.12,12.0504 124.445,12.8873 124.445,13.8987C124.445,14.9185 124.116,15.7638 123.458,16.4345C122.8,17.1053 121.972,17.4407 120.973,17.4407C120.355,17.4407 119.766,17.301 119.206,17.0217C118.645,16.7424 118.218,16.333 117.926,15.7934C117.634,15.2539 117.488,14.5969 117.488,13.8225ZM119.317,13.9177C119.317,14.5863 119.475,15.0984 119.793,15.4538C120.11,15.8093 120.501,15.987 120.967,15.987C121.432,15.987 121.823,15.8093 122.138,15.4538C122.453,15.0984 122.611,14.5821 122.611,13.905C122.611,13.2449 122.453,12.737 122.138,12.3816C121.823,12.0261 121.432,11.8484 120.967,11.8484C120.501,11.8484 120.11,12.0261 119.793,12.3816C119.475,12.737 119.317,13.2491 119.317,13.9177Z" style="fill:rgb(64,63,64);fill-rule:nonzero;"/>
        </g>
    </g>
    <defs>
        <linearGradient id="tag1" x1="0" y1="0" x2="1" y2="0" gradientUnits="userSpaceOnUse" gradientTransform="matrix(1.51416e-15,24.728,-130.977,8.02006e-15,66,0.635977)"><stop offset="0%" style="stop-color:rgb(151,150,150);stop-opacity:1"/><stop offset="64%" style="stop-color:rgb(159,158,158);stop-opacity:1"/><stop offset="83%" style="stop-color:rgb(179,179,179);stop-opacity:1"/><stop offset="99%" style="stop-color:rgb(203,203,203);stop-opacity:1"/><stop offset="99%" style="stop-color:rgb(203,203,203);stop-opacity:1"/><stop offset="100%" style="stop-color:rgb(235,235,235);stop-opacity:1"/></linearGradient>
    </defs>
</svg>
