<?xml version="1.0" standalone="no"?>
<!DOCTYPE svg PUBLIC "-//W3C//DTD SVG 1.1//EN" "http://www.w3.org/Graphics/SVG/1.1/DTD/svg11.dtd">
<svg width="12px" height="12px" version="1.1" xmlns="http://www.w3.org/2000/svg" xmlns:xlink="http://www.w3.org/1999/xlink" xml:space="preserve" style="fill-rule:evenodd;clip-rule:evenodd;stroke-linejoin:round;stroke-miterlimit:1.41421;">
    <g>
        <g>
            <g>
                <path d="M0.133402,8.79338C0.133402,8.79338 0.103546,8.44963 0.143085,8.27049C0.205218,7.9913 0.306083,7.7234 0.448907,7.48213C0.84914,6.80836 1.41963,6.29435 2.04499,5.83763C2.63404,5.40835 3.28119,5.07994 3.94852,4.79187C4.30517,4.63774 4.66667,4.48846 5.03947,4.38114C5.67532,4.19717 6.31683,4.02529 6.96559,3.89054C7.44167,3.79209 8.59799,3.61457 9.68249,3.69768C10.1804,3.7348 10.6306,3.84051 11.0163,4.17457C11.3633,4.47555 11.5933,4.84028 11.6651,5.29458C11.7692,5.95544 11.72,6.54772 11.5683,7.25942C11.3762,8.16237 10.9727,8.99107 10.4846,9.77621C10.14,10.333 9.73655,10.8381 9.23707,11.2682C8.54876,11.8597 7.1883,12.0751 5.5793,11.971C5.0895,11.9396 4.60535,11.8379 4.12443,11.7427C3.56281,11.6313 3.01491,11.4594 2.49283,11.223C1.98851,10.9938 1.52211,10.705 1.10897,10.3273C0.798303,10.0433 0.214094,9.61079 0.133402,8.79338Z" style="fill:rgb(252,221,27);fill-rule:nonzero;"/>
            </g>
            <g>
                <path d="M8.99741,9.19684C8.88444,9.25494 8.39383,9.3792 8.15176,9.46312C8.06381,9.49378 7.76686,9.66082 7.69182,9.54301C7.33758,8.98704 6.95913,8.57793 6.56858,8.05263C6.33942,7.74438 6.34426,7.75326 6.11509,7.45551C5.9287,7.21343 5.89884,7.04559 5.89884,7.04559C6.12074,6.70346 6.37573,6.36294 6.50322,5.68432C6.84132,6.33147 7.14472,7.2094 7.47153,7.99856C7.7483,8.66588 7.72409,8.67073 7.89597,8.86923C7.93712,8.91764 7.9702,8.9475 8.03072,8.96606C8.19614,9.0177 8.42692,8.98543 8.64156,9.0056C8.71822,9.01205 8.78116,9.01447 8.86023,9.029C8.92156,9.0411 8.97482,9.04675 9.00871,9.10808C9.02646,9.14035 9.02,9.18473 8.99741,9.19684Z" style="fill:black;fill-rule:nonzero;"/>
            </g>
            <g>
                <path d="M2.95278,8.72076C3.17629,8.586 3.18033,8.5973 3.39174,8.45286C3.86298,8.10588 3.98725,7.85977 4.34471,7.20133C4.71751,6.51625 4.76512,5.99095 4.80627,5.80132C4.86598,5.52697 4.92892,4.90322 4.94022,4.80316C4.97976,4.46668 4.98541,3.99866 4.9257,3.3967C4.73284,3.60811 4.565,4.0616 4.48189,4.2714C4.13734,5.1453 4.31567,5.35106 4.13572,5.74806C4.06955,5.8925 3.72016,6.02564 3.67497,6.03856C3.57975,5.94253 3.65803,5.74242 3.83474,5.53988C3.92108,5.44063 3.91785,5.32605 3.92027,5.27279C3.9469,4.84916 4.01226,4.14391 4.05503,3.97042C4.05503,3.97042 4.07762,3.90022 4.17365,3.68154C4.22932,3.55486 4.3544,3.30552 4.41976,3.18771C4.65215,2.77215 4.66345,2.70517 4.92489,2.35658C5.06691,2.16776 5.18472,2.11612 5.26379,2.09433C5.39452,2.06044 5.50991,2.05318 5.64708,2.05318C5.94645,2.05237 6.21435,2.23151 6.31763,2.51716C6.45965,2.91336 6.41769,2.87543 6.50242,3.35958C6.5944,3.88489 6.69285,3.92201 6.89458,4.17619C7.07614,4.40374 7.44086,4.85803 7.66196,5.01054C7.82818,5.12593 7.86772,5.14126 7.92824,5.18726C8.11464,5.32847 8.30265,5.75694 8.15418,5.83683C8.09527,5.85942 7.76282,5.76662 7.64582,5.40593C7.62323,5.32847 7.46346,5.27279 7.35291,5.20743C7.2351,5.13723 7.11245,5.06218 6.77112,4.84835C6.66622,4.78299 6.51533,4.63613 6.48547,4.58045C6.48547,4.58045 6.44997,5.07267 6.44109,5.1227C6.23613,6.20317 5.79475,6.82772 5.61077,7.14161C5.3574,7.57332 4.4012,8.47303 4.15105,8.63119C3.97514,8.74254 3.67981,8.93136 3.54909,9.06128C3.50632,9.10404 3.53699,9.17424 3.56765,9.23154C3.58782,9.26946 3.608,9.33079 3.67497,9.44053C3.68627,9.45747 3.77906,9.50105 3.79843,9.51476C3.90817,9.59142 3.97514,9.69067 3.90898,9.7294C3.90898,9.73586 3.44016,9.73505 3.36834,9.72779C3.29895,9.72053 3.26183,9.73263 3.16661,9.55834C3.02137,9.29448 2.99312,9.2509 2.84626,9.00398C2.80673,8.93701 2.81479,8.90393 2.82044,8.86681C2.83174,8.79741 2.95278,8.72076 2.95278,8.72076Z" style="fill:black;fill-rule:nonzero;"/>
            </g>
            <g>
                <path d="M6.43625,0.616864C6.51613,0.904935 6.5,1.1809 6.35233,1.44315C6.09654,1.89745 5.55671,1.9152 5.21377,1.52304C4.89181,1.15508 4.9378,0.114961 5.63014,0.000377512C5.63014,0.000377512 6.23855,-0.0940319 6.43625,0.616864Z" style="fill:black;fill-rule:nonzero;"/>
            </g>
            <g>
                <path d="M4.01065,5.9272C3.87993,6.06357 3.65883,6.13539 3.58863,6.0676C3.51762,5.99982 3.61849,5.78276 3.74921,5.64639C3.87912,5.51002 4.04293,5.45354 4.11313,5.52132C4.18414,5.5891 4.14137,5.79002 4.01065,5.9272Z" style="fill:black;fill-rule:nonzero;"/>
            </g>
        </g>
    </g>
</svg>
