<?xml version="1.0" standalone="no"?>
<!DOCTYPE svg PUBLIC "-//W3C//DTD SVG 1.1//EN" "http://www.w3.org/Graphics/SVG/1.1/DTD/svg11.dtd">
<svg width="317px" height="64px" version="1.1" xmlns="http://www.w3.org/2000/svg" xmlns:xlink="http://www.w3.org/1999/xlink" xml:space="preserve" style="fill-rule:evenodd;clip-rule:evenodd;stroke-linejoin:round;stroke-miterlimit:1.41421;">
    <g>
        <g>
            <g>
                <path d="M69.261,27.6209L73.2508,27.6209L75.0161,36.5537L75.0514,36.5537L77.2405,27.6209L81.2302,27.6209L83.6468,39.8373L80.4691,39.8373L79.1274,31.1164L79.0921,31.1164L76.9227,39.8373L73.2664,39.8373L71.2382,31.1164L71.2029,31.1164L69.4376,39.8373L66.3305,39.8373L69.261,27.6209Z" style="fill:black;fill-rule:nonzero;"/>
            </g>
            <g>
                <path d="M89.8608,37.8247C91.3281,37.8247 91.7674,36.5537 91.7674,35.3885C91.7674,34.2234 91.3281,32.9523 89.8608,32.9523C88.3976,32.9523 87.9543,34.2234 87.9543,35.3885C87.9543,36.5537 88.3976,37.8247 89.8608,37.8247ZM89.8608,30.6221C93.1444,30.6221 94.8392,32.7052 94.8392,35.3885C94.8392,38.0719 93.1444,40.155 89.8608,40.155C86.5773,40.155 84.8825,38.0719 84.8825,35.3885C84.8825,32.7052 86.5773,30.6221 89.8608,30.6221Z" style="fill:black;fill-rule:nonzero;"/>
            </g>
            <g>
                <path d="M99.6253,37.4364C99.943,37.7894 100.594,37.9307 101.053,37.9307C102.485,37.9307 103.121,36.7851 103.121,35.4238C103.121,34.2234 102.662,33.1642 101.285,33.1642C100.7,33.1642 100.135,33.4113 99.6959,33.784L99.6253,37.4364ZM96.7654,26.597L99.8371,26.597L99.7822,31.4537C100.331,30.9594 101.32,30.6221 102.132,30.6221C104.831,30.6221 106.192,32.9523 106.192,35.1257C106.192,37.8954 104.533,40.155 101.673,40.155C100.735,40.155 99.994,39.8569 99.59,39.4332L99.5547,39.4332L99.5547,39.8373L96.6752,39.8373L96.7654,26.597Z" style="fill:black;fill-rule:nonzero;"/>
            </g>
            <g>
                <path d="M108.134,26.9854L111.206,26.9854L111.206,29.5275L108.134,29.5275L108.134,26.9854ZM108.134,30.9398L111.206,30.9398L111.135,39.8373L108.064,39.8373L108.134,30.9398Z" style="fill:black;fill-rule:nonzero;"/>
            </g>
            <g>
                <path d="M113.36,26.597L116.432,26.597L116.361,39.8373L113.289,39.8373L113.36,26.597Z" style="fill:black;fill-rule:nonzero;"/>
            </g>
            <g>
                <path d="M118.585,26.9854L121.657,26.9854L121.657,29.5275L118.585,29.5275L118.585,26.9854ZM118.585,30.9398L121.657,30.9398L121.586,39.8373L118.515,39.8373L118.585,30.9398Z" style="fill:black;fill-rule:nonzero;"/>
            </g>
            <g>
                <path d="M122.767,30.9398L124.074,30.9398L124.144,27.923L127.11,27.923L127.039,30.9398L129.566,30.9398L129.511,33.1642L126.988,33.1642C126.988,34.3999 126.898,35.7063 126.898,36.4674C126.898,37.2441 127.094,37.6129 127.781,37.6129C128.205,37.6129 128.558,37.4011 128.911,37.1892L129.582,39.2723C128.683,39.8216 127.589,40.155 126.545,40.155C124.058,40.155 123.932,38.5858 123.932,36.538C123.932,35.4435 124.023,34.3489 124.023,33.1642L122.697,33.1642L122.767,30.9398Z" style="fill:black;fill-rule:nonzero;"/>
            </g>
            <g>
                <path d="M136.98,34.2783C136.98,33.3603 136.537,32.5287 135.513,32.5287C134.544,32.5287 133.803,33.3956 133.607,34.2783L136.98,34.2783ZM136.486,26.9501L137.969,28.5585L134.226,29.9159L133.414,29.0332L136.486,26.9501ZM139.24,38.833C138.196,39.7156 136.608,40.155 135.195,40.155C131.967,40.155 130.5,37.86 130.5,35.5847C130.5,32.9013 132.512,30.6221 135.286,30.6221C138.675,30.6221 139.734,33.023 139.734,36.079L133.571,36.079C133.571,36.7655 134.015,37.9307 135.709,37.9307C136.784,37.9307 137.384,37.6129 138.216,37.048L139.24,38.833Z" style="fill:black;fill-rule:nonzero;"/>
            </g>
            <g>
                <path d="M150.115,37.4364C150.432,37.7894 151.084,37.9307 151.543,37.9307C152.971,37.9307 153.61,36.7851 153.61,35.4238C153.61,34.2234 153.151,33.1642 151.774,33.1642C151.19,33.1642 150.625,33.4113 150.185,33.784L150.115,37.4364ZM147.219,30.9398L150.13,30.9398L150.13,31.5754C150.766,31.0654 151.633,30.677 152.621,30.6221C155.321,30.6221 156.682,32.9523 156.682,35.1257C156.682,37.8954 155.022,40.155 152.159,40.155C151.437,40.155 150.731,39.9785 150.15,39.6803L150.115,44.286L147.149,44.286L147.219,30.9398Z" style="fill:black;fill-rule:nonzero;"/>
            </g>
            <g>
                <path d="M158.624,26.9854L161.695,26.9854L161.695,29.5275L158.624,29.5275L158.624,26.9854ZM158.624,30.9398L161.695,30.9398L161.621,39.8373L158.553,39.8373L158.624,30.9398Z" style="fill:black;fill-rule:nonzero;"/>
            </g>
            <g>
                <path d="M169.832,34.2783C169.832,33.3603 169.388,32.5287 168.369,32.5287C167.396,32.5287 166.654,33.3956 166.462,34.2783L169.832,34.2783ZM169.337,26.9501L170.82,28.5585L167.078,29.9159L166.266,29.0332L169.337,26.9501ZM172.091,38.833C171.052,39.7156 169.459,40.155 168.047,40.155C164.818,40.155 163.355,37.86 163.355,35.5847C163.355,32.9013 165.367,30.6221 168.137,30.6221C171.527,30.6221 172.586,33.023 172.586,36.079L166.423,36.079C166.423,36.7655 166.866,37.9307 168.561,37.9307C169.64,37.9307 170.236,37.6129 171.068,37.048L172.091,38.833Z" style="fill:black;fill-rule:nonzero;"/>
            </g>
            <g>
                <path d="M173.272,30.9398L174.583,30.9398L174.649,27.923L177.619,27.923L177.548,30.9398L180.071,30.9398L180.02,33.1642L177.493,33.1642C177.493,34.3999 177.403,35.7063 177.403,36.4674C177.403,37.2441 177.599,37.6129 178.286,37.6129C178.714,37.6129 179.063,37.4011 179.42,37.1892L180.091,39.2723C179.188,39.8216 178.094,40.155 177.054,40.155C174.563,40.155 174.441,38.5858 174.441,36.538C174.441,35.4435 174.528,34.3489 174.528,33.1642L173.206,33.1642L173.272,30.9398Z" style="fill:black;fill-rule:nonzero;"/>
            </g>
            <g>
                <path d="M186.108,37.8247C187.576,37.8247 188.015,36.5537 188.015,35.3885C188.015,34.2234 187.576,32.9523 186.108,32.9523C184.645,32.9523 184.202,34.2234 184.202,35.3885C184.202,36.5537 184.645,37.8247 186.108,37.8247ZM186.108,30.6221C189.392,30.6221 191.087,32.7052 191.087,35.3885C191.087,38.0719 189.392,40.155 186.108,40.155C182.825,40.155 181.13,38.0719 181.13,35.3885C181.13,32.7052 182.825,30.6221 186.108,30.6221Z" style="fill:black;fill-rule:nonzero;"/>
            </g>
            <g>
                <path d="M192.993,30.9398L196.065,30.9398L196.065,31.9127C196.771,31.2223 197.846,30.6221 198.941,30.6221C200.832,30.6221 201.855,31.6656 201.855,34.1018C201.855,35.9181 201.836,37.8797 201.82,39.8373L198.748,39.8373C198.768,38.1268 198.784,36.3968 198.784,34.5608C198.784,33.835 198.588,33.2701 197.674,33.2701C197.175,33.2701 196.469,33.6938 196.065,34.0822L195.994,39.8373L192.923,39.8373L192.993,30.9398Z" style="fill:black;fill-rule:nonzero;"/>
            </g>
            <g>
                <path d="M204.115,30.9398L207.187,30.9398L207.187,31.9127C207.893,31.2223 208.972,30.6221 210.062,30.6221C211.953,30.6221 212.977,31.6656 212.977,34.1018C212.977,35.9181 212.958,37.8797 212.942,39.8373L209.87,39.8373C209.886,38.1268 209.906,36.3968 209.906,34.5608C209.906,33.835 209.709,33.2701 208.791,33.2701C208.297,33.2701 207.595,33.6938 207.187,34.0822L207.116,39.8373L204.045,39.8373L204.115,30.9398Z" style="fill:black;fill-rule:nonzero;"/>
            </g>
            <g>
                <path d="M221.169,34.2783C221.169,33.3603 220.725,32.5287 219.701,32.5287C218.732,32.5287 217.991,33.3956 217.799,34.2783L221.169,34.2783ZM223.428,38.833C222.385,39.7156 220.796,40.155 219.384,40.155C216.155,40.155 214.688,37.86 214.688,35.5847C214.688,32.9013 216.7,30.6221 219.47,30.6221C222.863,30.6221 223.923,33.023 223.923,36.079L217.759,36.079C217.759,36.7655 218.199,37.9307 219.897,37.9307C220.972,37.9307 221.573,37.6129 222.404,37.048L223.428,38.833Z" style="fill:black;fill-rule:nonzero;"/>
            </g>
            <g>
                <path d="M62.3055,54.7722C63.0469,55.0037 64.2631,55.3018 65.1301,55.3018C66.1187,55.3018 67.1583,55.1096 67.1583,53.9602C67.1583,52.8303 65.7303,52.7244 64.2984,52.3007C62.8704,51.877 61.4228,51.1356 61.4228,48.77C61.4228,46.1416 64.0709,44.9215 66.3815,44.9215C67.7428,44.9215 69.0139,45.2393 70.2653,45.7179L69.3669,47.9775C68.5549,47.6755 67.4407,47.4636 66.7895,47.4636C65.2713,47.4636 64.7064,48.0128 64.7064,48.7896C64.7064,49.2839 65.0595,49.7076 66.4718,50.0057C69.5945,50.7119 70.4419,51.9673 70.4419,53.6777C70.4419,56.6984 68.0253,57.844 65.3066,57.844C64.0356,57.844 62.7096,57.5615 61.5091,57.1574L62.3055,54.7722Z" style="fill:black;fill-rule:nonzero;"/>
            </g>
            <g>
                <path d="M78.3154,48.5935L81.3871,48.5935L81.3165,57.4909L78.2448,57.4909L78.2448,56.5219C77.5386,57.2084 76.4637,57.8087 75.3692,57.8087C73.4783,57.8087 72.4544,56.769 72.4544,54.3328C72.4544,52.5126 72.474,50.555 72.4897,48.5935L75.5614,48.5935C75.5457,50.3078 75.5261,52.0379 75.5261,53.8739C75.5261,54.5957 75.7223,55.1606 76.6402,55.1606C77.1345,55.1606 77.8407,54.7369 78.2448,54.3485L78.3154,48.5935Z" style="fill:black;fill-rule:nonzero;"/>
            </g>
            <g>
                <path d="M83.5605,44.639L86.6322,44.639L86.6322,47.1812L83.5605,47.1812L83.5605,44.639ZM83.5605,48.5935L86.6322,48.5935L86.5616,57.4909L83.4899,57.4909L83.5605,48.5935Z" style="fill:black;fill-rule:nonzero;"/>
            </g>
            <g>
                <path d="M88.9076,55.1959C89.5431,55.4431 90.6572,55.6902 91.4144,55.6902C91.8577,55.6902 92.4383,55.4274 92.4383,54.9841C92.4383,54.5957 92.2814,54.4545 90.7278,54.0151C89.2253,53.5914 88.3073,52.8852 88.3073,51.2258C88.3073,49.0878 90.3198,48.2757 92.1911,48.2757C93.7093,48.2757 95,48.6288 95.3531,48.8602L94.7882,50.7668C94.1879,50.606 93.4818,50.3941 92.6148,50.3941C92.1401,50.3941 91.485,50.5903 91.485,51.1003C91.485,51.473 91.6458,51.7005 92.6148,51.8966C94.3449,52.2497 95.6159,52.8146 95.6159,54.7918C95.6159,57.0868 93.623,57.8087 91.4693,57.8087C90.1433,57.8087 88.6447,57.4399 88.221,57.228L88.9076,55.1959Z" style="fill:black;fill-rule:nonzero;"/>
            </g>
            <g>
                <path d="M97.4009,55.1959C98.0364,55.4431 99.1467,55.6902 99.9077,55.6902C100.347,55.6902 100.932,55.4274 100.932,54.9841C100.932,54.5957 100.771,54.4545 99.2173,54.0151C97.7187,53.5914 96.8007,52.8852 96.8007,51.2258C96.8007,49.0878 98.8132,48.2757 100.684,48.2757C102.203,48.2757 103.489,48.6288 103.843,48.8602L103.278,50.7668C102.677,50.606 101.971,50.3941 101.108,50.3941C100.63,50.3941 99.9783,50.5903 99.9783,51.1003C99.9783,51.473 100.135,51.7005 101.108,51.8966C102.838,52.2497 104.109,52.8146 104.109,54.7918C104.109,57.0868 102.112,57.8087 99.9587,57.8087C98.6367,57.8087 97.1341,57.4399 96.7105,57.228L97.4009,55.1959Z" style="fill:black;fill-rule:nonzero;"/>
            </g>
            <g>
                <path d="M111.751,51.932C111.751,51.014 111.312,50.1823 110.288,50.1823C109.315,50.1823 108.574,51.0493 108.381,51.932L111.751,51.932ZM114.011,56.4866C112.971,57.3693 111.383,57.8087 109.97,57.8087C106.738,57.8087 105.274,55.5137 105.274,53.2383C105.274,50.555 107.287,48.2757 110.057,48.2757C113.446,48.2757 114.505,50.6766 114.505,53.7326L108.346,53.7326C108.346,54.4192 108.786,55.5843 110.48,55.5843C111.559,55.5843 112.159,55.2665 112.987,54.7016L114.011,56.4866Z" style="fill:black;fill-rule:nonzero;"/>
            </g>
            <g>
                <path d="M0.298098,44.8783C0.298098,44.8783 0.152947,43.2071 0.345173,42.3362C0.647248,40.9789 1.13763,39.6764 1.832,38.5034C3.77783,35.2277 6.55141,32.7287 9.59175,30.5083C12.4556,28.4212 15.6018,26.8246 18.8462,25.424C20.5802,24.6747 22.3377,23.949 24.1501,23.4272C27.2415,22.5328 30.3603,21.6972 33.5144,21.042C35.829,20.5634 41.4507,19.7003 46.7232,20.1044C49.1437,20.2849 51.3328,20.7988 53.208,22.4229C54.8949,23.8862 56.013,25.6594 56.3621,27.8681C56.8682,31.0811 56.6289,33.9606 55.8913,37.4207C54.9577,41.8105 52.9961,45.8395 50.6227,49.6566C48.9476,52.3635 46.9861,54.8193 44.5577,56.9103C41.2114,59.7859 34.5971,60.8333 26.7746,60.3272C24.3933,60.1742 22.0395,59.6799 19.7014,59.217C16.971,58.6756 14.3072,57.84 11.769,56.6906C9.31714,55.5764 7.04963,54.172 5.04104,52.336C3.53067,50.9551 0.690402,48.8524 0.298098,44.8783Z" style="fill:rgb(254,254,254);fill-rule:nonzero;"/>
            </g>
            <g>
                <path d="M43.3926,46.8399C42.8433,47.1223 40.4581,47.7265 39.2812,48.1345C38.8536,48.2835 37.41,49.0956 37.0451,48.5228C35.3229,45.8199 33.483,43.8309 31.5843,41.277C30.4701,39.7784 30.4937,39.8216 29.3795,38.374C28.4733,37.1971 28.3281,36.3811 28.3281,36.3811C29.407,34.7177 30.6467,33.0622 31.2665,29.7629C32.9102,32.9092 34.3853,37.1774 35.9741,41.0142C37.3197,44.2585 37.202,44.282 38.0376,45.2471C38.2377,45.4825 38.3986,45.6276 38.6928,45.7179C39.497,45.9689 40.619,45.812 41.6625,45.9101C42.0352,45.9415 42.3412,45.9533 42.7257,46.0239C43.0238,46.0827 43.2827,46.1102 43.4475,46.4083C43.5338,46.5652 43.5024,46.781 43.3926,46.8399Z" style="fill:black;fill-rule:nonzero;"/>
            </g>
            <g>
                <path d="M14.0052,44.5253C15.0918,43.8701 15.1115,43.925 16.1393,43.2228C18.4303,41.5359 19.0345,40.3394 20.7724,37.1382C22.5848,33.8076 22.8163,31.2537 23.0164,30.3318C23.3067,28.9979 23.6127,25.9654 23.6676,25.479C23.8598,23.8431 23.8873,21.5677 23.597,18.6411C22.6594,19.669 21.8434,21.8737 21.4393,22.8937C19.7642,27.1423 20.6312,28.1427 19.7563,30.0728C19.4346,30.7751 17.736,31.4224 17.5163,31.4851C17.0534,31.0183 17.4339,30.0454 18.293,29.0607C18.7128,28.5782 18.6971,28.0211 18.7089,27.7622C18.8383,25.7026 19.1561,22.2739 19.364,21.4304C19.364,21.4304 19.4739,21.0891 19.9407,20.026C20.2114,19.41 20.8195,18.1978 21.1372,17.6251C22.2671,15.6047 22.322,15.2791 23.593,13.5843C24.2835,12.6664 24.8563,12.4153 25.2407,12.3094C25.8762,12.1446 26.4372,12.1093 27.1042,12.1093C28.5596,12.1054 29.862,12.9763 30.3642,14.365C31.0546,16.2912 30.8506,16.1069 31.2626,18.4607C31.7098,21.0146 32.1884,21.195 33.1692,22.4308C34.0518,23.5371 35.8251,25.7457 36.9,26.4872C37.7081,27.0482 37.9003,27.1227 38.1946,27.3463C39.1008,28.0329 40.0148,30.116 39.293,30.5044C39.0066,30.6142 37.3903,30.1631 36.8215,28.4095C36.7117,28.0329 35.9349,27.7622 35.3974,27.4444C34.8247,27.1031 34.2284,26.7383 32.5689,25.6987C32.0589,25.3809 31.3253,24.6669 31.1802,24.3962C31.1802,24.3962 31.0076,26.7893 30.9644,27.0325C29.968,32.2854 27.8221,35.3218 26.9276,36.8479C25.6958,38.9467 21.047,43.3209 19.8309,44.0898C18.9756,44.6312 17.5398,45.5492 16.9043,46.1808C16.6964,46.3887 16.8454,46.73 16.9945,47.0086C17.0926,47.1929 17.1907,47.4911 17.5163,48.0246C17.5712,48.107 18.0223,48.3188 18.1165,48.3855C18.65,48.7582 18.9756,49.2408 18.654,49.4291C18.654,49.4604 16.3747,49.4565 16.0255,49.4212C15.6881,49.3859 15.5077,49.4448 15.0448,48.5974C14.3386,47.3145 14.2013,47.1027 13.4873,45.9023C13.2951,45.5766 13.3343,45.4158 13.3618,45.2353C13.4167,44.898 14.0052,44.5253 14.0052,44.5253Z" style="fill:black;fill-rule:nonzero;"/>
            </g>
            <g>
                <path d="M30.9409,5.12629C31.3293,6.52682 31.2508,7.86849 30.5329,9.14347C29.2893,11.3521 26.6648,11.4384 24.9975,9.53186C23.4322,7.74295 23.6558,2.68617 27.0218,2.12909C27.0218,2.12909 29.9797,1.6701 30.9409,5.12629Z" style="fill:black;fill-rule:nonzero;"/>
            </g>
            <g>
                <path d="M19.1483,30.9437C18.5127,31.6067 17.4378,31.9559 17.0965,31.6264C16.7513,31.2968 17.2417,30.2415 17.8772,29.5785C18.5088,28.9155 19.3052,28.6409 19.6465,28.9705C19.9917,29.3 19.7838,30.2768 19.1483,30.9437Z" style="fill:black;fill-rule:nonzero;"/>
            </g>
        </g>
    </g>
</svg>
