<?xml version="1.0" standalone="no"?>
<!DOCTYPE svg PUBLIC "-//W3C//DTD SVG 1.1//EN" "http://www.w3.org/Graphics/SVG/1.1/DTD/svg11.dtd">
<svg width="317px" height="64px" version="1.1" xmlns="http://www.w3.org/2000/svg" xmlns:xlink="http://www.w3.org/1999/xlink" xml:space="preserve" style="fill-rule:evenodd;clip-rule:evenodd;stroke-linejoin:round;stroke-miterlimit:1.41421;">
    <g>
        <g>
            <g>
                <path d="M69.161,27.9512L73.0744,27.9512L74.806,36.7131L74.8407,36.7131L76.9879,27.9512L80.9013,27.9512L83.2716,39.9339L80.1548,39.9339L78.8387,31.3798L78.8041,31.3798L76.6762,39.9339L73.0898,39.9339L71.1004,31.3798L71.0658,31.3798L69.3342,39.9339L66.2866,39.9339L69.161,27.9512Z" style="fill:black;fill-rule:nonzero;"/>
            </g>
            <g>
                <path d="M89.3669,37.9599C90.806,37.9599 91.237,36.7131 91.237,35.5703C91.237,34.4274 90.806,33.1807 89.3669,33.1807C87.9316,33.1807 87.4967,34.4274 87.4967,35.5703C87.4967,36.7131 87.9316,37.9599 89.3669,37.9599ZM89.3669,30.895C92.5876,30.895 94.25,32.9383 94.25,35.5703C94.25,38.2023 92.5876,40.2456 89.3669,40.2456C86.1461,40.2456 84.4838,38.2023 84.4838,35.5703C84.4838,32.9383 86.1461,30.895 89.3669,30.895Z" style="fill:black;fill-rule:nonzero;"/>
            </g>
            <g>
                <path d="M98.9445,37.5789C99.2562,37.9253 99.895,38.0638 100.345,38.0638C101.75,38.0638 102.373,36.9402 102.373,35.6049C102.373,34.4274 101.923,33.3885 100.572,33.3885C99.9989,33.3885 99.4448,33.6309 99.0138,33.9965L98.9445,37.5789ZM96.1394,26.9469L99.1523,26.9469L99.0985,31.7107C99.6372,31.2259 100.607,30.895 101.403,30.895C104.051,30.895 105.386,33.1807 105.386,35.3125C105.386,38.0292 103.758,40.2456 100.953,40.2456C100.034,40.2456 99.3063,39.9532 98.9099,39.5376L98.8753,39.5376L98.8753,39.9339L96.0509,39.9339L96.1394,26.9469Z" style="fill:black;fill-rule:nonzero;"/>
            </g>
            <g>
                <path d="M107.291,27.3279L110.304,27.3279L110.304,29.8214L107.291,29.8214L107.291,27.3279ZM107.291,31.2066L110.304,31.2066L110.235,39.9339L107.222,39.9339L107.291,31.2066Z" style="fill:black;fill-rule:nonzero;"/>
            </g>
            <g>
                <path d="M112.416,26.9469L115.429,26.9469L115.36,39.9339L112.347,39.9339L112.416,26.9469Z" style="fill:black;fill-rule:nonzero;"/>
            </g>
            <g>
                <path d="M117.542,27.3279L120.555,27.3279L120.555,29.8214L117.542,29.8214L117.542,27.3279ZM117.542,31.2066L120.555,31.2066L120.486,39.9339L117.473,39.9339L117.542,31.2066Z" style="fill:black;fill-rule:nonzero;"/>
            </g>
            <g>
                <path d="M121.644,31.2066L122.925,31.2066L122.995,28.2475L125.904,28.2475L125.834,31.2066L128.313,31.2066L128.259,33.3885L125.784,33.3885C125.784,34.6006 125.696,35.882 125.696,36.6285C125.696,37.3904 125.888,37.7521 126.562,37.7521C126.977,37.7521 127.324,37.5443 127.67,37.3365L128.328,39.3798C127.447,39.9185 126.373,40.2456 125.35,40.2456C122.91,40.2456 122.787,38.7064 122.787,36.6978C122.787,35.6242 122.875,34.5506 122.875,33.3885L121.575,33.3885L121.644,31.2066Z" style="fill:black;fill-rule:nonzero;"/>
            </g>
            <g>
                <path d="M134.25,35.9166C134.131,35.9358 133.973,35.9705 133.73,35.9859C132.969,36.0397 131.983,36.4207 131.983,37.3904C131.983,37.9791 132.553,38.2716 133.038,38.2716C133.646,38.2716 134.25,37.8906 134.25,37.7021L134.25,35.9166ZM130.806,28.8709L132.261,27.2932L135.274,29.3365L134.473,30.2023L130.806,28.8709ZM129.748,32.3495C131.256,31.4337 132.607,30.895 134.388,30.895C136.001,30.895 137.055,31.6915 137.055,33.3538L137.055,37.5789C137.055,37.9099 137.178,38.1677 137.559,38.1677C137.698,38.1677 137.836,38.1331 137.921,38.0638L138.252,39.7107C137.852,40.0224 136.451,40.2456 135.932,40.2456C135.116,40.2456 134.562,39.9339 134.442,39.2952C133.765,39.83 132.83,40.2456 131.914,40.2456C130.337,40.2456 129.178,39.3105 129.178,37.7367C129.178,35.9358 130.183,35.2586 132.053,34.7737C132.588,34.6352 133.438,34.4967 134.25,34.4274L134.25,34.1003C134.25,33.4077 133.854,33.0768 133.28,33.0768C132.364,33.0768 131.549,33.6309 130.771,34.0311L129.748,32.3495Z" style="fill:black;fill-rule:nonzero;"/>
            </g>
            <g>
                <path d="M148.137,37.5789C148.449,37.9253 149.092,38.0638 149.538,38.0638C150.943,38.0638 151.566,36.9402 151.566,35.6049C151.566,34.4274 151.116,33.3885 149.765,33.3885C149.192,33.3885 148.641,33.6309 148.207,33.9965L148.137,37.5789ZM145.298,31.2066L148.157,31.2066L148.157,31.83C148.776,31.3298 149.627,30.9488 150.596,30.895C153.248,30.895 154.579,33.1807 154.579,35.3125C154.579,38.0292 152.951,40.2456 150.146,40.2456C149.438,40.2456 148.742,40.0724 148.172,39.78L148.137,44.2976L145.228,44.2976L145.298,31.2066Z" style="fill:black;fill-rule:nonzero;"/>
            </g>
            <g>
                <path d="M162.352,34.4813C162.352,33.5809 161.921,32.7651 160.917,32.7651C159.966,32.7651 159.239,33.6155 159.046,34.4813L162.352,34.4813ZM164.568,38.9488C163.549,39.8146 161.99,40.2456 160.605,40.2456C157.434,40.2456 155.999,37.9945 155.999,35.7627C155.999,33.1307 157.973,30.895 160.693,30.895C164.018,30.895 165.053,33.2499 165.053,36.2475L159.012,36.2475C159.012,36.9209 159.447,38.0638 161.105,38.0638C162.163,38.0638 162.752,37.7521 163.568,37.198L164.568,38.9488Z" style="fill:black;fill-rule:nonzero;"/>
            </g>
            <g>
                <path d="M172.915,33.5616C172.607,33.2153 171.964,33.0768 171.514,33.0768C170.113,33.0768 169.49,34.2042 169.49,35.5357C169.49,36.7131 169.936,37.7521 171.287,37.7521C171.86,37.7521 172.414,37.5097 172.845,37.148L172.915,33.5616ZM175.755,39.9339L172.899,39.9339L172.899,39.3105C172.276,39.8146 171.426,40.1956 170.46,40.2456C167.808,40.2456 166.473,37.9599 166.473,35.8319C166.473,33.1114 168.105,30.895 170.906,30.895C171.618,30.895 172.311,31.0681 172.884,31.3644L172.915,26.9469L175.824,26.9469L175.755,39.9339Z" style="fill:black;fill-rule:nonzero;"/>
            </g>
            <g>
                <path d="M182.492,37.9599C183.932,37.9599 184.362,36.7131 184.362,35.5703C184.362,34.4274 183.932,33.1807 182.492,33.1807C181.053,33.1807 180.622,34.4274 180.622,35.5703C180.622,36.7131 181.053,37.9599 182.492,37.9599ZM182.492,30.895C185.713,30.895 187.375,32.9383 187.375,35.5703C187.375,38.2023 185.713,40.2456 182.492,40.2456C179.272,40.2456 177.609,38.2023 177.609,35.5703C177.609,32.9383 179.272,30.895 182.492,30.895Z" style="fill:black;fill-rule:nonzero;"/>
            </g>
            <g>
                <path d="M189.246,31.2066L192.259,31.2066L192.259,32.161C192.951,31.4837 194.006,30.895 195.079,30.895C196.934,30.895 197.934,31.9185 197.934,34.3081C197.934,36.0898 197.923,38.0138 197.904,39.9339L194.891,39.9339C194.906,38.2562 194.925,36.5592 194.925,34.7584C194.925,34.0465 194.733,33.4924 193.832,33.4924C193.348,33.4924 192.655,33.9079 192.259,34.2889L192.189,39.9339L189.176,39.9339L189.246,31.2066Z" style="fill:black;fill-rule:nonzero;"/>
            </g>
            <g>
                <path d="M204.638,35.9166C204.518,35.9358 204.361,35.9705 204.118,35.9859C203.356,36.0397 202.367,36.4207 202.367,37.3904C202.367,37.9791 202.941,38.2716 203.426,38.2716C204.033,38.2716 204.638,37.8906 204.638,37.7021L204.638,35.9166ZM200.139,32.3495C201.644,31.4337 202.995,30.895 204.776,30.895C206.388,30.895 207.443,31.6915 207.443,33.3538L207.443,37.5789C207.443,37.9099 207.562,38.1677 207.943,38.1677C208.085,38.1677 208.22,38.1331 208.309,38.0638L208.64,39.7107C208.239,40.0224 206.839,40.2456 206.315,40.2456C205.503,40.2456 204.949,39.9339 204.83,39.2952C204.153,39.83 203.218,40.2456 202.302,40.2456C200.724,40.2456 199.562,39.3105 199.562,37.7367C199.562,35.9358 200.57,35.2586 202.44,34.7737C202.975,34.6352 203.826,34.4967 204.638,34.4274L204.638,34.1003C204.638,33.4077 204.241,33.0768 203.668,33.0768C202.748,33.0768 201.936,33.6309 201.159,34.0311L200.139,32.3495Z" style="fill:black;fill-rule:nonzero;"/>
            </g>
            <g>
                <path d="M210.04,26.9469L213.053,26.9469L212.984,39.9339L209.971,39.9339L210.04,26.9469Z" style="fill:black;fill-rule:nonzero;"/>
            </g>
            <g>
                <path d="M221.034,34.4813C221.034,33.5809 220.603,32.7651 219.599,32.7651C218.648,32.7651 217.921,33.6155 217.729,34.4813L221.034,34.4813ZM223.25,38.9488C222.231,39.8146 220.672,40.2456 219.287,40.2456C216.116,40.2456 214.681,37.9945 214.681,35.7627C214.681,33.1307 216.655,30.895 219.375,30.895C222.7,30.895 223.735,33.2499 223.735,36.2475L217.694,36.2475C217.694,36.9209 218.129,38.0638 219.787,38.0638C220.845,38.0638 221.434,37.7521 222.25,37.198L223.25,38.9488Z" style="fill:black;fill-rule:nonzero;"/>
            </g>
            <g>
                <path d="M62.3385,54.5833C63.0658,54.8103 64.2587,55.1027 65.1091,55.1027C66.0788,55.1027 67.0985,54.9142 67.0985,53.7867C67.0985,52.6785 65.6978,52.5746 64.2933,52.159C62.8926,51.7434 61.4727,51.0162 61.4727,48.6958C61.4727,46.1177 64.0701,44.9209 66.3366,44.9209C67.6718,44.9209 68.9186,45.2326 70.1461,45.7021L69.2649,47.9185C68.4684,47.6222 67.3755,47.4144 66.7368,47.4144C65.2476,47.4144 64.6935,47.9532 64.6935,48.7151C64.6935,49.1999 65.0398,49.6155 66.4251,49.9079C69.4881,50.6006 70.3193,51.8319 70.3193,53.5097C70.3193,56.4726 67.9489,57.5962 65.2822,57.5962C64.0355,57.5962 62.7349,57.3192 61.5574,56.9228L62.3385,54.5833Z" style="fill:black;fill-rule:nonzero;"/>
            </g>
            <g>
                <path d="M71.3582,48.5227L74.529,48.5227L75.9643,54.2369L75.9989,54.2369L77.5766,48.5227L80.6396,48.5227L77.592,57.2499L74.148,57.2499L71.3582,48.5227Z" style="fill:black;fill-rule:nonzero;"/>
            </g>
            <g>
                <path d="M81.9056,44.6439L84.9186,44.6439L84.9186,47.1374L81.9056,47.1374L81.9056,44.6439ZM81.9056,48.5227L84.9186,48.5227L84.8493,57.2499L81.8363,57.2499L81.9056,48.5227Z" style="fill:black;fill-rule:nonzero;"/>
            </g>
            <g>
                <path d="M86.858,48.5227L93.869,48.5227L94.477,50.5313L90.3558,54.9988L94.1461,54.9296L94.1461,57.2499L86.9773,57.2499L86.3885,55.2759L90.5097,50.7737L86.858,50.843L86.858,48.5227Z" style="fill:black;fill-rule:nonzero;"/>
            </g>
            <g>
                <path d="M95.8431,48.5227L102.858,48.5227L103.462,50.5313L99.3409,54.9988L103.135,54.9296L103.135,57.2499L95.9662,57.2499L95.3775,55.2759L99.4987,50.7737L95.8431,50.843L95.8431,48.5227Z" style="fill:black;fill-rule:nonzero;"/>
            </g>
            <g>
                <path d="M110.873,51.7973C110.873,50.8969 110.442,50.0811 109.438,50.0811C108.488,50.0811 107.76,50.9315 107.568,51.7973L110.873,51.7973ZM113.09,56.2648C112.07,57.1306 110.512,57.5616 109.126,57.5616C105.959,57.5616 104.52,55.3105 104.52,53.0787C104.52,50.4467 106.494,48.211 109.211,48.211C112.536,48.211 113.575,50.5659 113.575,53.5635L107.533,53.5635C107.533,54.2369 107.964,55.3798 109.627,55.3798C110.685,55.3798 111.274,55.0681 112.085,54.514L113.09,56.2648Z" style="fill:black;fill-rule:nonzero;"/>
            </g>
            <g>
                <path d="M115.325,48.5227L118.338,48.5227L118.338,49.754L118.373,49.754C118.823,49.0075 119.412,48.2802 120.59,48.2802C120.92,48.2802 121.263,48.3149 121.575,48.3841L121.178,51.3625C120.882,51.2778 120.555,51.1893 120.105,51.1893C119.1,51.1893 118.323,52.0397 118.323,52.2129L118.269,57.2499L115.256,57.2499L115.325,48.5227Z" style="fill:black;fill-rule:nonzero;"/>
            </g>
            <g>
                <path d="M126.858,53.2326C126.739,53.2519 126.581,53.2865 126.338,53.3019C125.577,53.3557 124.588,53.7367 124.588,54.7064C124.588,55.2951 125.161,55.5876 125.646,55.5876C126.25,55.5876 126.858,55.2066 126.858,55.0181L126.858,53.2326ZM122.356,49.6655C123.86,48.7497 125.211,48.211 126.996,48.211C128.605,48.211 129.663,49.0075 129.663,50.6698L129.663,54.8949C129.663,55.2259 129.782,55.4837 130.163,55.4837C130.302,55.4837 130.44,55.4491 130.529,55.3798L130.856,57.0267C130.46,57.3384 129.055,57.5616 128.536,57.5616C127.724,57.5616 127.17,57.2499 127.047,56.6112C126.373,57.146 125.438,57.5616 124.522,57.5616C122.945,57.5616 121.786,56.6266 121.786,55.0527C121.786,53.2519 122.791,52.5746 124.657,52.0898C125.196,51.9512 126.042,51.8127 126.858,51.7434L126.858,51.4164C126.858,50.7237 126.458,50.3928 125.888,50.3928C124.969,50.3928 124.157,50.9469 123.376,51.3471L122.356,49.6655Z" style="fill:black;fill-rule:nonzero;"/>
            </g>
            <g>
                <path d="M1.51699,44.8786C1.51699,44.8786 1.37462,43.2394 1.56317,42.3851C1.85947,41.0537 2.34046,39.7761 3.02156,38.6256C4.93017,35.4125 7.65071,32.9613 10.6329,30.7834C13.442,28.7362 16.528,27.1701 19.7103,25.7964C21.4112,25.0614 23.1351,24.3495 24.9128,23.8377C27.9451,22.9604 31.0042,22.1408 34.098,21.4981C36.3683,21.0287 41.8825,20.1821 47.0542,20.5785C49.4285,20.7555 51.5756,21.2596 53.415,22.8526C55.0696,24.2879 56.1663,26.0272 56.5088,28.1937C57.0052,31.3452 56.7705,34.1696 56.047,37.5636C55.1312,41.8695 53.2072,45.8214 50.8792,49.5655C49.2361,52.2206 47.3121,54.6294 44.9301,56.6804C41.6478,59.501 35.1601,60.5284 27.4872,60.032C25.1514,59.882 22.8426,59.3971 20.5492,58.943C17.871,58.412 15.2582,57.5924 12.7685,56.4649C10.3635,55.3721 8.1394,53.9945 6.16923,52.1937C4.68775,50.8392 1.90179,48.7766 1.51699,44.8786Z" style="fill:rgb(254,254,254);fill-rule:nonzero;"/>
            </g>
            <g>
                <path d="M43.7873,46.8026C43.2486,47.0797 40.909,47.6723 39.7546,48.0724C39.3352,48.2187 37.9191,49.0152 37.5612,48.4534C35.872,45.8021 34.0672,43.8512 32.2048,41.3461C31.112,39.8762 31.1351,39.9185 30.0422,38.4986C29.1533,37.3442 29.011,36.5438 29.011,36.5438C30.0692,34.9123 31.2851,33.2884 31.8931,30.0522C33.5054,33.1383 34.9523,37.325 36.5107,41.0883C37.8306,44.2706 37.7151,44.2937 38.5348,45.2403C38.731,45.4712 38.8888,45.6136 39.1774,45.7021C39.9662,45.9483 41.0668,45.7944 42.0903,45.8906C42.4559,45.9214 42.756,45.933 43.1331,46.0022C43.4256,46.0599 43.6795,46.0869 43.8412,46.3793C43.9258,46.5332 43.895,46.7449 43.7873,46.8026Z" style="fill:black;fill-rule:nonzero;"/>
            </g>
            <g>
                <path d="M14.9619,44.5323C16.0278,43.8897 16.047,43.9435 17.0552,43.2547C19.3025,41.6001 19.895,40.4265 21.5997,37.2865C23.3775,34.0195 23.6045,31.5145 23.8008,30.6102C24.0855,29.3019 24.3857,26.3274 24.4395,25.8502C24.6281,24.2456 24.655,22.0138 24.3703,19.1432C23.4506,20.1513 22.6502,22.3139 22.2539,23.3144C20.6108,27.4818 21.4612,28.463 20.6031,30.3562C20.2875,31.045 18.6214,31.68 18.4059,31.7415C17.9518,31.2836 18.3251,30.3293 19.1678,29.3635C19.5795,28.8902 19.5641,28.3437 19.5757,28.0898C19.7026,26.0696 20.0143,22.7064 20.2183,21.8791C20.2183,21.8791 20.326,21.5443 20.7839,20.5015C21.0495,19.8974 21.6459,18.7083 21.9576,18.1465C23.0658,16.1648 23.1197,15.8454 24.3664,14.1831C25.0437,13.2827 25.6055,13.0364 25.9826,12.9325C26.606,12.7709 27.1562,12.7362 27.8104,12.7362C29.238,12.7324 30.5155,13.5867 31.0081,14.9488C31.6853,16.8382 31.4852,16.6574 31.8893,18.9662C32.3279,21.4712 32.7974,21.6482 33.7594,22.8603C34.6252,23.9455 36.3645,26.1119 37.4189,26.8392C38.2115,27.3894 38.4001,27.4625 38.6887,27.6819C39.5776,28.3553 40.4742,30.3986 39.7661,30.7795C39.4852,30.8873 37.8998,30.4447 37.3419,28.7247C37.2341,28.3553 36.4722,28.0898 35.9451,27.7781C35.3833,27.4433 34.7984,27.0854 33.1707,26.0657C32.6704,25.754 31.9508,25.0537 31.8085,24.7882C31.8085,24.7882 31.6392,27.1355 31.5968,27.374C30.6194,32.5265 28.5146,35.5049 27.6372,37.0017C26.429,39.0604 21.8691,43.3509 20.6762,44.1052C19.8373,44.6362 18.429,45.5366 17.8056,46.1561C17.6016,46.3601 17.7479,46.6949 17.8941,46.9681C17.9903,47.1489 18.0865,47.4414 18.4059,47.9647C18.4597,48.0455 18.9023,48.2533 18.9946,48.3187C19.5179,48.6843 19.8373,49.1576 19.5218,49.3423C19.5218,49.3731 17.2861,49.3692 16.9436,49.3346C16.6127,49.3 16.4357,49.3577 15.9816,48.5265C15.289,47.2682 15.1543,47.0604 14.454,45.8829C14.2654,45.5635 14.3039,45.4058 14.3308,45.2288C14.3847,44.8978 14.9619,44.5323 14.9619,44.5323Z" style="fill:black;fill-rule:nonzero;"/>
            </g>
            <g>
                <path d="M31.5737,5.8868C31.9547,7.26054 31.8777,8.57655 31.1735,9.82715C29.9537,11.9936 27.3794,12.0782 25.744,10.2081C24.2087,8.45342 24.428,3.49334 27.7296,2.94692C27.7296,2.94692 30.631,2.49671 31.5737,5.8868Z" style="fill:black;fill-rule:nonzero;"/>
            </g>
            <g>
                <path d="M20.0066,31.2105C19.3833,31.8608 18.3289,32.2033 17.9941,31.88C17.6555,31.5568 18.1365,30.5217 18.7599,29.8714C19.3794,29.2211 20.1606,28.9517 20.4953,29.275C20.834,29.5982 20.63,30.5563 20.0066,31.2105Z" style="fill:black;fill-rule:nonzero;"/>
            </g>
        </g>
    </g>
</svg>
