<?xml version="1.0" standalone="no"?>
<!DOCTYPE svg PUBLIC "-//W3C//DTD SVG 1.1//EN" "http://www.w3.org/Graphics/SVG/1.1/DTD/svg11.dtd">
<svg width="317px" height="64px" version="1.1" xmlns="http://www.w3.org/2000/svg" xmlns:xlink="http://www.w3.org/1999/xlink" xml:space="preserve" style="fill-rule:evenodd;clip-rule:evenodd;stroke-linejoin:round;stroke-miterlimit:1.41421;">
    <g>
        <g>
            <g>
                <path d="M68.7246,27.9931L77.3482,27.9931L77.3482,30.5911L71.992,30.5911L71.9559,32.9925L77.2961,32.9925L77.2961,35.4822L71.9359,35.4822L71.8998,40.4776L68.6163,40.4776L68.7246,27.9931Z" style="fill:black;fill-rule:nonzero;"/>
            </g>
            <g>
                <path d="M85.0698,31.3849L88.209,31.3849L88.1368,40.4776L84.9976,40.4776L84.9976,39.4873C84.276,40.1889 83.1775,40.8023 82.059,40.8023C80.1265,40.8023 79.0802,39.7399 79.0802,37.2502C79.0802,35.39 79.1002,33.3894 79.1162,31.3849L82.2554,31.3849C82.2394,33.1369 82.2193,34.9049 82.2193,36.7812C82.2193,37.5189 82.4198,38.0962 83.3579,38.0962C83.8631,38.0962 84.5847,37.6632 84.9976,37.2663L85.0698,31.3849Z" style="fill:black;fill-rule:nonzero;"/>
            </g>
            <g>
                <path d="M90.5543,38.1323C91.2038,38.3848 92.3424,38.6374 93.1162,38.6374C93.5692,38.6374 94.1625,38.3688 94.1625,37.9158C94.1625,37.5189 94.0022,37.3745 92.4146,36.9255C90.8791,36.4925 89.9409,35.7709 89.9409,34.075C89.9409,31.89 91.9976,31.0601 93.91,31.0601C95.4615,31.0601 96.7805,31.421 97.1413,31.6575L96.564,33.6059C95.9506,33.4416 95.229,33.2251 94.343,33.2251C93.8578,33.2251 93.1883,33.4255 93.1883,33.9467C93.1883,34.3276 93.3527,34.5601 94.343,34.7606C96.111,35.1214 97.4099,35.6987 97.4099,37.7193C97.4099,40.0647 95.3733,40.8023 93.1723,40.8023C91.8172,40.8023 90.2857,40.4255 89.8527,40.209L90.5543,38.1323Z" style="fill:black;fill-rule:nonzero;"/>
            </g>
            <g>
                <path d="M99.2341,38.1323C99.8836,38.3848 101.018,38.6374 101.796,38.6374C102.245,38.6374 102.842,38.3688 102.842,37.9158C102.842,37.5189 102.678,37.3745 101.09,36.9255C99.5588,36.4925 98.6207,35.7709 98.6207,34.075C98.6207,31.89 100.677,31.0601 102.59,31.0601C104.141,31.0601 105.456,31.421 105.817,31.6575L105.24,33.6059C104.626,33.4416 103.905,33.2251 103.023,33.2251C102.534,33.2251 101.868,33.4255 101.868,33.9467C101.868,34.3276 102.028,34.5601 103.023,34.7606C104.791,35.1214 106.09,35.6987 106.09,37.7193C106.09,40.0647 104.049,40.8023 101.848,40.8023C100.497,40.8023 98.9615,40.4255 98.5285,40.209L99.2341,38.1323Z" style="fill:black;fill-rule:nonzero;"/>
            </g>
            <g>
                <path d="M106.827,31.3849L110.131,31.3849L111.626,37.3384L111.662,37.3384L113.306,31.3849L116.497,31.3849L113.322,40.4776L109.734,40.4776L106.827,31.3849Z" style="fill:black;fill-rule:nonzero;"/>
            </g>
            <g>
                <path d="M123.93,34.7967C123.93,33.8585 123.481,33.0086 122.435,33.0086C121.441,33.0086 120.683,33.8946 120.487,34.7967L123.93,34.7967ZM126.24,39.4513C125.177,40.3533 123.554,40.8023 122.11,40.8023C118.807,40.8023 117.311,38.457 117.311,36.1317C117.311,33.3894 119.368,31.0601 122.198,31.0601C125.662,31.0601 126.745,33.5137 126.745,36.6369L120.45,36.6369C120.45,37.3384 120.899,38.5292 122.631,38.5292C123.734,38.5292 124.347,38.2044 125.193,37.6271L126.24,39.4513Z" style="fill:black;fill-rule:nonzero;"/>
            </g>
            <g>
                <path d="M128.569,31.3849L131.708,31.3849L131.708,32.6678L131.744,32.6678C132.213,31.89 132.827,31.1323 134.053,31.1323C134.394,31.1323 134.755,31.1684 135.08,31.2405L134.667,34.3436C134.358,34.2554 134.017,34.1632 133.548,34.1632C132.502,34.1632 131.688,35.0492 131.688,35.2296L131.636,40.4776L128.497,40.4776L128.569,31.3849Z" style="fill:black;fill-rule:nonzero;"/>
            </g>
            <g>
                <path d="M135.93,26.9468L139.069,26.9468L138.977,35.6065L139.013,35.6065L141.611,31.3849L145.075,31.3849L142.116,35.7508L145.275,40.4776L141.575,40.4776L139.069,35.9312L139.033,35.9312L138.977,40.4776L135.838,40.4776L135.93,26.9468Z" style="fill:black;fill-rule:nonzero;"/>
            </g>
            <g>
                <path d="M152.672,34.7967C152.672,33.8585 152.219,33.0086 151.173,33.0086C150.182,33.0086 149.425,33.8946 149.224,34.7967L152.672,34.7967ZM154.981,39.4513C153.915,40.3533 152.291,40.8023 150.848,40.8023C147.548,40.8023 146.049,38.457 146.049,36.1317C146.049,33.3894 148.106,31.0601 150.936,31.0601C154.404,31.0601 155.486,33.5137 155.486,36.6369L149.188,36.6369C149.188,37.3384 149.641,38.5292 151.373,38.5292C152.471,38.5292 153.085,38.2044 153.935,37.6271L154.981,39.4513Z" style="fill:black;fill-rule:nonzero;"/>
            </g>
            <g>
                <path d="M157.327,26.9468L160.466,26.9468L160.446,32.3791C161.167,31.6735 162.27,31.0601 163.388,31.0601C165.317,31.0601 166.363,32.1266 166.363,34.6162C166.363,36.4725 166.347,38.477 166.327,40.4776L163.188,40.4776C163.208,38.7296 163.224,36.9616 163.224,35.0853C163.224,34.3436 163.028,33.7663 162.089,33.7663C161.584,33.7663 160.859,34.1993 160.446,34.5962L160.373,40.4776L157.234,40.4776L157.327,26.9468Z" style="fill:black;fill-rule:nonzero;"/>
            </g>
            <g>
                <path d="M168.672,31.3849L171.812,31.3849L171.812,32.6678L171.848,32.6678C172.317,31.89 172.93,31.1323 174.157,31.1323C174.502,31.1323 174.863,31.1684 175.187,31.2405L174.77,34.3436C174.466,34.2554 174.121,34.1632 173.652,34.1632C172.605,34.1632 171.796,35.0492 171.796,35.2296L171.739,40.4776L168.6,40.4776L168.672,31.3849Z" style="fill:black;fill-rule:nonzero;"/>
            </g>
            <g>
                <path d="M63.6209,55.7404C64.3786,55.9769 65.6215,56.2816 66.5075,56.2816C67.5178,56.2816 68.5802,56.0852 68.5802,54.9105C68.5802,53.7559 67.1209,53.6476 65.6576,53.2146C64.1982,52.7817 62.7189,52.0239 62.7189,49.6064C62.7189,46.9203 65.425,45.6735 67.7864,45.6735C69.1776,45.6735 70.4765,45.9982 71.7555,46.4873L70.8374,48.7966C70.0075,48.4879 68.8689,48.2714 68.2034,48.2714C66.6518,48.2714 66.0745,48.8327 66.0745,49.6265C66.0745,50.1316 66.4353,50.5646 67.8786,50.8693C71.0699,51.5909 71.9359,52.8739 71.9359,54.6218C71.9359,57.7089 69.4662,58.8796 66.6879,58.8796C65.389,58.8796 64.0339,58.5909 62.8071,58.178L63.6209,55.7404Z" style="fill:black;fill-rule:nonzero;"/>
            </g>
            <g>
                <path d="M82.0389,57.9053C81.1729,58.4466 79.7497,58.8435 78.7033,58.8435C75.8167,58.8435 73.74,57.1837 73.74,54.1889C73.74,51.1219 75.7967,49.1013 78.8997,49.1013C79.9822,49.1013 81.2812,49.4461 81.9868,49.8951L80.9765,51.9518C80.5074,51.7553 80.0023,51.5909 79.4971,51.5909C77.9255,51.5909 76.8791,52.5291 76.8791,54.0285C76.8791,55.3275 77.8894,56.3538 79.2245,56.3538C79.8219,56.3538 80.4152,56.0852 80.9204,55.8326L82.0389,57.9053Z" style="fill:black;fill-rule:nonzero;"/>
            </g>
            <g>
                <path d="M83.7027,44.9879L86.8378,44.9879L86.8218,50.4203C87.5435,49.7147 88.642,49.1013 89.7645,49.1013C91.6929,49.1013 92.7393,50.1677 92.7393,52.6574C92.7393,54.5136 92.7233,56.5182 92.7032,58.5187L89.5641,58.5187C89.5801,56.7707 89.6001,55.0027 89.6001,53.1264C89.6001,52.3847 89.3997,51.8074 88.4656,51.8074C87.9604,51.8074 87.2388,52.2404 86.8218,52.6373L86.7496,58.5187L83.6105,58.5187L83.7027,44.9879Z" style="fill:black;fill-rule:nonzero;"/>
            </g>
            <g>
                <path d="M94.4352,49.426L97.4661,49.426L98.5285,55.5961L98.5646,55.5961L99.8836,49.426L103.58,49.426L104.683,55.5961L104.719,55.5961L105.998,49.426L108.94,49.426L106.523,58.5187L102.698,58.5187L101.724,52.3487L101.688,52.3487L100.28,58.5187L96.544,58.5187L94.4352,49.426Z" style="fill:black;fill-rule:nonzero;"/>
            </g>
            <g>
                <path d="M116.77,52.8378C116.77,51.8996 116.317,51.0497 115.271,51.0497C114.28,51.0497 113.523,51.9357 113.322,52.8378L116.77,52.8378ZM119.079,57.4924C118.013,58.3944 116.389,58.8435 114.946,58.8435C111.646,58.8435 110.147,56.4981 110.147,54.1728C110.147,51.4306 112.204,49.1013 115.038,49.1013C118.502,49.1013 119.584,51.5549 119.584,54.678L113.286,54.678C113.286,55.3796 113.739,56.5703 115.471,56.5703C116.57,56.5703 117.183,56.2455 118.033,55.6682L119.079,57.4924Z" style="fill:black;fill-rule:nonzero;"/>
            </g>
            <g>
                <path d="M121.497,45.3848L124.636,45.3848L124.636,47.9827L121.497,47.9827L121.497,45.3848ZM121.497,49.426L124.636,49.426L124.564,58.5187L121.425,58.5187L121.497,49.426Z" style="fill:black;fill-rule:nonzero;"/>
            </g>
            <g>
                <path d="M126.801,49.426L134.106,49.426L134.739,51.5188L130.445,56.1734L134.394,56.1012L134.394,58.5187L126.925,58.5187L126.312,56.462L130.606,51.7714L126.801,51.8435L126.801,49.426Z" style="fill:black;fill-rule:nonzero;"/>
            </g>
            <g>
                <path d="M0.252461,45.6293C0.252461,45.6293 0.104123,43.9215 0.300569,43.0314C0.609275,41.6443 1.11042,40.3132 1.82003,39.1145C3.80857,35.7669 6.64303,33.213 9.75011,30.9439C12.6768,28.811 15.8921,27.1793 19.2077,25.748C20.9797,24.9823 22.7758,24.2406 24.628,23.7074C27.7872,22.7933 30.9745,21.9393 34.1978,21.2698C36.5632,20.7807 42.3083,19.8987 47.6966,20.3116C50.1703,20.4961 52.4074,21.0213 54.3237,22.681C56.0477,24.1764 57.1903,25.9886 57.5471,28.2457C58.0642,31.5292 57.8197,34.4719 57.066,38.008C56.1118,42.4942 54.1072,46.6116 51.6817,50.5125C49.9698,53.2788 47.9652,55.7885 45.4836,57.9254C42.0638,60.8641 35.3044,61.9345 27.3101,61.4173C24.8766,61.261 22.4711,60.7558 20.0817,60.2828C17.2913,59.7295 14.5691,58.8755 11.9752,57.7009C9.46947,56.5623 7.15219,55.127 5.09951,53.2507C3.55599,51.8395 0.653376,49.6906 0.252461,45.6293Z" style="fill:rgb(254,254,254);fill-rule:nonzero;"/>
            </g>
            <g>
                <path d="M44.2929,47.6339C43.7316,47.9226 41.294,48.54 40.0913,48.9569C39.6543,49.1093 38.1789,49.9392 37.8061,49.3538C36.0461,46.5915 34.1658,44.5589 32.2253,41.949C31.0868,40.4175 31.1108,40.4616 29.9722,38.9822C29.0461,37.7795 28.8978,36.9456 28.8978,36.9456C30.0003,35.2457 31.2672,33.5538 31.9006,30.1821C33.5804,33.3975 35.0879,37.7594 36.7116,41.6803C38.0867,44.9959 37.9664,45.02 38.8204,46.0062C39.0248,46.2468 39.1892,46.3951 39.4899,46.4873C40.3118,46.7439 41.4584,46.5835 42.5248,46.6838C42.9057,46.7158 43.2184,46.7279 43.6113,46.8C43.916,46.8602 44.1806,46.8882 44.349,47.1929C44.4372,47.3533 44.4051,47.5738 44.2929,47.6339Z" style="fill:black;fill-rule:nonzero;"/>
            </g>
            <g>
                <path d="M14.2604,45.2685C15.3709,44.599 15.391,44.6551 16.4414,43.9375C18.7827,42.2136 19.4001,40.9908 21.1762,37.7193C23.0284,34.3156 23.2649,31.7056 23.4694,30.7635C23.7661,29.4004 24.0788,26.3013 24.1349,25.8042C24.3314,24.1323 24.3594,21.807 24.0627,18.8162C23.1046,19.8666 22.2707,22.1198 21.8577,23.1621C20.1458,27.504 21.0318,28.5264 20.1378,30.4989C19.809,31.2165 18.0731,31.878 17.8486,31.9421C17.3755,31.4651 17.7644,30.4708 18.6424,29.4645C19.0714,28.9714 19.0553,28.4021 19.0674,28.1375C19.1997,26.0327 19.5244,22.5287 19.7369,21.6667C19.7369,21.6667 19.8491,21.3179 20.3262,20.2314C20.6029,19.602 21.2243,18.3632 21.549,17.7779C22.7036,15.7132 22.7598,15.3804 24.0587,13.6484C24.7643,12.7103 25.3497,12.4537 25.7426,12.3455C26.392,12.1771 26.9654,12.141 27.6469,12.141C29.1343,12.137 30.4653,13.027 30.9785,14.4463C31.6841,16.4147 31.4756,16.2263 31.8966,18.6318C32.3536,21.2418 32.8428,21.4262 33.845,22.6891C34.7471,23.8196 36.5592,26.0768 37.6577,26.8345C38.4836,27.4078 38.6801,27.484 38.9807,27.7125C39.9069,28.4141 40.841,30.543 40.1033,30.9399C39.8106,31.0521 38.1589,30.5911 37.5775,28.799C37.4653,28.4141 36.6715,28.1375 36.1222,27.8127C35.5369,27.4639 34.9275,27.0911 33.2316,26.0287C32.7105,25.7039 31.9607,24.9743 31.8124,24.6976C31.8124,24.6976 31.636,27.1432 31.5919,27.3918C30.5736,32.76 28.3806,35.8631 27.4665,37.4226C26.2076,39.5675 21.4568,44.0377 20.214,44.8235C19.34,45.3768 17.8726,46.3149 17.2231,46.9604C17.0107,47.1729 17.163,47.5217 17.3154,47.8063C17.4156,47.9947 17.5158,48.2994 17.8486,48.8447C17.9047,48.9289 18.3658,49.1454 18.462,49.2135C19.0072,49.5944 19.34,50.0875 19.0112,50.28C19.0112,50.312 16.6819,50.308 16.3251,50.2719C15.9803,50.2359 15.7959,50.296 15.3228,49.43C14.6012,48.119 14.4609,47.9025 13.7312,46.6757C13.5347,46.343 13.5748,46.1786 13.6029,45.9942C13.659,45.6494 14.2604,45.2685 14.2604,45.2685Z" style="fill:black;fill-rule:nonzero;"/>
            </g>
            <g>
                <path d="M31.5678,5.00474C31.9648,6.436 31.8846,7.80713 31.1509,9.1101C29.88,11.3672 27.1979,11.4554 25.494,9.507C23.8944,7.67884 24.1229,2.51105 27.5627,1.94175C27.5627,1.94175 30.5856,1.47268 31.5678,5.00474Z" style="fill:black;fill-rule:nonzero;"/>
            </g>
            <g>
                <path d="M19.5164,31.3889C18.8669,32.0664 17.7684,32.4232 17.4196,32.0865C17.0668,31.7497 17.5679,30.6712 18.2174,29.9937C18.8629,29.3162 19.6767,29.0355 20.0255,29.3723C20.3783,29.7091 20.1659,30.7073 19.5164,31.3889Z" style="fill:black;fill-rule:nonzero;"/>
            </g>
        </g>
    </g>
</svg>
