<?xml version="1.0" standalone="no"?>
<!DOCTYPE svg PUBLIC "-//W3C//DTD SVG 1.1//EN" "http://www.w3.org/Graphics/SVG/1.1/DTD/svg11.dtd">
<svg width="317px" height="64px" version="1.1" xmlns="http://www.w3.org/2000/svg" xmlns:xlink="http://www.w3.org/1999/xlink" xml:space="preserve" style="fill-rule:evenodd;clip-rule:evenodd;stroke-linejoin:round;stroke-miterlimit:1.41421;">
    <g>
        <g>
            <g>
                <path d="M69.4848,33.3977L70.8805,33.3977C71.6243,33.3977 72.6595,33.1907 72.6595,31.9829C72.6595,31.0013 72.0537,30.568 70.8114,30.568L69.5538,30.568L69.4848,33.3977ZM66.4979,28.2905L71.0875,28.2905C75.0905,28.2905 75.7653,30.5872 75.7653,31.933C75.7653,34.4675 74.0054,35.6753 71.6051,35.6753L69.6036,35.6753L69.5346,40.2304L66.3944,40.2304L66.4979,28.2905Z" style="fill:black;fill-rule:nonzero;"/>
            </g>
            <g>
                <path d="M83.1846,34.7972C83.1846,33.9 82.7513,33.0872 81.7506,33.0872C80.8035,33.0872 80.0788,33.9345 79.8871,34.7972L83.1846,34.7972ZM85.3931,39.2488C84.3732,40.1115 82.8203,40.541 81.44,40.541C78.2844,40.541 76.8504,38.2979 76.8504,36.074C76.8504,33.4514 78.8174,31.2237 81.5282,31.2237C84.841,31.2237 85.8762,33.5703 85.8762,36.5572L79.8526,36.5572C79.8526,37.2282 80.2859,38.3669 81.9423,38.3669C82.9929,38.3669 83.5795,38.0564 84.3924,37.5042L85.3931,39.2488Z" style="fill:black;fill-rule:nonzero;"/>
            </g>
            <g>
                <path d="M93.7096,33.8808C93.3991,33.5358 92.7587,33.3977 92.3101,33.3977C90.9145,33.3977 90.2933,34.5212 90.2933,35.8478C90.2933,37.0211 90.7419,38.0564 92.0877,38.0564C92.6552,38.0564 93.2073,37.8148 93.6406,37.4544L93.7096,33.8808ZM96.5393,40.2304L93.6905,40.2304L93.6905,39.6092C93.0693,40.1115 92.2258,40.4911 91.2595,40.541C88.6177,40.541 87.2911,38.2634 87.2911,36.1431C87.2911,33.4322 88.913,31.2237 91.7082,31.2237C92.4136,31.2237 93.1038,31.3962 93.6751,31.6915L93.7096,27.2898L96.6083,27.2898L96.5393,40.2304Z" style="fill:black;fill-rule:nonzero;"/>
            </g>
            <g>
                <path d="M104.595,34.7972C104.595,33.9 104.166,33.0872 103.165,33.0872C102.214,33.0872 101.489,33.9345 101.301,34.7972L104.595,34.7972ZM106.804,39.2488C105.788,40.1115 104.235,40.541 102.854,40.541C99.6949,40.541 98.2647,38.2979 98.2647,36.074C98.2647,33.4514 100.232,31.2237 102.939,31.2237C106.251,31.2237 107.287,33.5703 107.287,36.5572L101.267,36.5572C101.267,37.2282 101.696,38.3669 103.353,38.3669C104.407,38.3669 104.994,38.0564 105.803,37.5042L106.804,39.2488Z" style="fill:black;fill-rule:nonzero;"/>
            </g>
            <g>
                <path d="M109.1,37.9873C109.721,38.2289 110.807,38.4704 111.55,38.4704C111.98,38.4704 112.551,38.2136 112.551,37.7803C112.551,37.4007 112.394,37.2627 110.876,36.8332C109.411,36.4191 108.514,35.729 108.514,34.1071C108.514,32.0174 110.481,31.2237 112.31,31.2237C113.793,31.2237 115.051,31.5688 115.396,31.795L114.844,33.6585C114.257,33.5012 113.567,33.2942 112.724,33.2942C112.256,33.2942 111.619,33.4859 111.619,33.9844C111.619,34.3486 111.773,34.571 112.724,34.7627C114.415,35.1078 115.657,35.6599 115.657,37.5924C115.657,39.8354 113.705,40.541 111.6,40.541C110.308,40.541 108.84,40.1805 108.426,39.9735L109.1,37.9873Z" style="fill:black;fill-rule:nonzero;"/>
            </g>
            <g>
                <path d="M116.259,31.5343L117.536,31.5343L117.605,28.5857L120.503,28.5857L120.434,31.5343L122.904,31.5343L122.85,33.7083L120.385,33.7083C120.385,34.9161 120.296,36.1929 120.296,36.9367C120.296,37.6959 120.488,38.0564 121.159,38.0564C121.573,38.0564 121.918,37.8493 122.263,37.6423L122.919,39.6782C122.041,40.215 120.971,40.541 119.951,40.541C117.52,40.541 117.398,39.0072 117.398,37.0058C117.398,35.936 117.486,34.8662 117.486,33.7083L116.19,33.7083L116.259,31.5343Z" style="fill:black;fill-rule:nonzero;"/>
            </g>
            <g>
                <path d="M124.353,31.5343L127.355,31.5343L127.355,32.7612L127.39,32.7612C127.838,32.0174 128.425,31.2927 129.598,31.2927C129.924,31.2927 130.269,31.3272 130.58,31.3962L130.185,34.364C129.89,34.2796 129.564,34.1914 129.115,34.1914C128.114,34.1914 127.336,35.0388 127.336,35.2113L127.286,40.2304L124.284,40.2304L124.353,31.5343Z" style="fill:black;fill-rule:nonzero;"/>
            </g>
            <g>
                <path d="M131.324,27.6693L134.326,27.6693L134.326,30.1539L131.324,30.1539L131.324,27.6693ZM131.324,31.5343L134.326,31.5343L134.257,40.2304L131.255,40.2304L131.324,31.5343Z" style="fill:black;fill-rule:nonzero;"/>
            </g>
            <g>
                <path d="M140.952,36.2274C140.829,36.2466 140.675,36.2811 140.434,36.2964C139.675,36.3501 138.689,36.7297 138.689,37.6959C138.689,38.2826 139.261,38.574 139.744,38.574C140.346,38.574 140.952,38.1944 140.952,38.0065L140.952,36.2274ZM136.465,32.6731C137.965,31.7605 139.31,31.2237 141.09,31.2237C142.692,31.2237 143.747,32.0174 143.747,33.6738L143.747,37.8838C143.747,38.2136 143.866,38.4704 144.245,38.4704C144.383,38.4704 144.521,38.4359 144.609,38.3669L144.935,40.008C144.54,40.3186 143.141,40.541 142.623,40.541C141.814,40.541 141.262,40.2304 141.139,39.5939C140.468,40.1269 139.537,40.541 138.62,40.541C137.052,40.541 135.894,39.6092 135.894,38.041C135.894,36.2466 136.895,35.5718 138.758,35.0886C139.295,34.9506 140.139,34.8126 140.952,34.7436L140.952,34.4176C140.952,33.7275 140.553,33.3977 139.985,33.3977C139.069,33.3977 138.26,33.9499 137.482,34.3486L136.465,32.6731Z" style="fill:black;fill-rule:nonzero;"/>
            </g>
            <g>
                <path d="M146.385,31.5343L149.387,31.5343L149.387,32.4852C150.077,31.8103 151.131,31.2237 152.201,31.2237C154.046,31.2237 155.046,32.2436 155.046,34.6247C155.046,36.3999 155.031,38.3171 155.012,40.2304L152.01,40.2304C152.025,38.5586 152.044,36.8677 152.044,35.0733C152.044,34.364 151.856,33.8118 150.959,33.8118C150.476,33.8118 149.786,34.2259 149.387,34.6055L149.318,40.2304L146.316,40.2304L146.385,31.5343Z" style="fill:black;fill-rule:nonzero;"/>
            </g>
            <g>
                <path d="M165.054,28.2905L168.953,28.2905L170.679,37.0211L170.713,37.0211L172.853,28.2905L176.752,28.2905L179.114,40.2304L176.012,40.2304L174.697,31.7068L174.666,31.7068L172.542,40.2304L168.972,40.2304L166.986,31.7068L166.952,31.7068L165.226,40.2304L162.189,40.2304L165.054,28.2905Z" style="fill:black;fill-rule:nonzero;"/>
            </g>
            <g>
                <path d="M185.191,38.2634C186.621,38.2634 187.051,37.0211 187.051,35.8823C187.051,34.7436 186.621,33.5012 185.191,33.5012C183.757,33.5012 183.324,34.7436 183.324,35.8823C183.324,37.0211 183.757,38.2634 185.191,38.2634ZM185.191,31.2237C188.397,31.2237 190.057,33.2597 190.057,35.8823C190.057,38.505 188.397,40.541 185.191,40.541C181.978,40.541 180.326,38.505 180.326,35.8823C180.326,33.2597 181.978,31.2237 185.191,31.2237Z" style="fill:black;fill-rule:nonzero;"/>
            </g>
            <g>
                <path d="M194.731,37.8838C195.041,38.2289 195.678,38.3669 196.13,38.3669C197.526,38.3669 198.147,37.2473 198.147,35.9168C198.147,34.7436 197.699,33.7083 196.353,33.7083C195.781,33.7083 195.229,33.9499 194.8,34.3141L194.731,37.8838ZM191.936,27.2898L194.938,27.2898L194.888,32.0366C195.421,31.5534 196.387,31.2237 197.181,31.2237C199.819,31.2237 201.149,33.5012 201.149,35.6254C201.149,38.3324 199.528,40.541 196.732,40.541C195.816,40.541 195.091,40.2495 194.696,39.8354L194.662,39.8354L194.662,40.2304L191.847,40.2304L191.936,27.2898Z" style="fill:black;fill-rule:nonzero;"/>
            </g>
            <g>
                <path d="M203.047,27.6693L206.05,27.6693L206.05,30.1539L203.047,30.1539L203.047,27.6693ZM203.047,31.5343L206.05,31.5343L205.981,40.2304L202.978,40.2304L203.047,31.5343Z" style="fill:black;fill-rule:nonzero;"/>
            </g>
            <g>
                <path d="M208.155,27.2898L211.157,27.2898L211.088,40.2304L208.086,40.2304L208.155,27.2898Z" style="fill:black;fill-rule:nonzero;"/>
            </g>
            <g>
                <path d="M213.262,27.6693L216.264,27.6693L216.264,30.1539L213.262,30.1539L213.262,27.6693ZM213.262,31.5343L216.264,31.5343L216.191,40.2304L213.193,40.2304L213.262,31.5343Z" style="fill:black;fill-rule:nonzero;"/>
            </g>
            <g>
                <path d="M217.349,31.5343L218.626,31.5343L218.695,28.5857L221.594,28.5857L221.525,31.5343L223.994,31.5343L223.94,33.7083L221.475,33.7083C221.475,34.9161 221.387,36.1929 221.387,36.9367C221.387,37.6959 221.578,38.0564 222.249,38.0564C222.663,38.0564 223.009,37.8493 223.354,37.6423L224.009,39.6782C223.131,40.215 222.061,40.541 221.042,40.541C218.611,40.541 218.488,39.0072 218.488,37.0058C218.488,35.936 218.576,34.8662 218.576,33.7083L217.28,33.7083L217.349,31.5343Z" style="fill:black;fill-rule:nonzero;"/>
            </g>
            <g>
                <path d="M224.458,31.5343L227.617,31.5343L229.013,36.9176L229.047,36.9176L230.654,31.5343L233.741,31.5343L230.102,41.7334C229.343,43.7694 228.687,44.5784 226.356,44.5784C225.823,44.5784 225.305,44.5784 224.807,44.5286L224.807,42.4389C225.045,42.4926 225.286,42.5079 225.528,42.5079C225.995,42.5079 226.479,42.4389 226.789,42.0593C227.011,41.7832 227.341,41.1621 227.395,40.8362L224.458,31.5343Z" style="fill:black;fill-rule:nonzero;"/>
            </g>
            <g>
                <path d="M61.6169,54.8274C62.3416,55.0536 63.5302,55.345 64.3776,55.345C65.3438,55.345 66.3599,55.1571 66.3599,54.0337C66.3599,52.9294 64.9642,52.8259 63.5647,52.4118C62.169,51.9977 60.7542,51.273 60.7542,48.961C60.7542,46.392 63.3423,45.1996 65.6007,45.1996C66.9312,45.1996 68.1735,45.5102 69.3966,45.9779L68.5186,48.1865C67.7249,47.8912 66.6359,47.6842 65.9994,47.6842C64.5156,47.6842 63.9635,48.221 63.9635,48.9802C63.9635,49.4633 64.3085,49.8774 65.6889,50.1688C68.7409,50.8589 69.5691,52.0859 69.5691,53.7576C69.5691,56.71 67.2072,57.8296 64.5501,57.8296C63.3078,57.8296 62.0118,57.5536 60.8385,57.1586L61.6169,54.8274Z" style="fill:black;fill-rule:nonzero;"/>
            </g>
            <g>
                <path d="M70.8459,48.7884L73.7446,48.7884L74.7646,54.6894L74.7991,54.6894L76.0567,48.7884L79.5957,48.7884L80.6463,54.6894L80.6808,54.6894L81.9078,48.7884L84.7183,48.7884L82.4062,57.4845L78.7484,57.4845L77.8166,51.5836L77.7821,51.5836L76.4363,57.4845L72.8666,57.4845L70.8459,48.7884Z" style="fill:black;fill-rule:nonzero;"/>
            </g>
            <g>
                <path d="M86.2213,44.9235L89.2235,44.9235L89.2235,47.4081L86.2213,47.4081L86.2213,44.9235ZM86.2213,48.7884L89.2235,48.7884L89.1545,57.4845L86.1523,57.4845L86.2213,48.7884Z" style="fill:black;fill-rule:nonzero;"/>
            </g>
            <g>
                <path d="M90.3086,48.7884L91.5854,48.7884L91.6545,45.8399L94.5532,45.8399L94.4842,48.7884L96.9534,48.7884L96.8997,50.9625L94.4343,50.9625C94.4343,52.1703 94.3461,53.4471 94.3461,54.1909C94.3461,54.9501 94.5378,55.3105 95.2088,55.3105C95.6229,55.3105 95.968,55.1035 96.3131,54.8964L96.9687,56.9324C96.0907,57.4692 95.0209,57.7951 94.001,57.7951C91.5701,57.7951 91.4474,56.2614 91.4474,54.2599C91.4474,53.1902 91.5356,52.1204 91.5356,50.9625L90.2396,50.9625L90.3086,48.7884Z" style="fill:black;fill-rule:nonzero;"/>
            </g>
            <g>
                <path d="M98.1765,48.7884L105.166,48.7884L105.768,50.7899L101.662,55.2415L105.442,55.1725L105.442,57.4845L98.2992,57.4845L97.7126,55.5176L101.819,51.0315L98.1765,51.1005L98.1765,48.7884Z" style="fill:black;fill-rule:nonzero;"/>
            </g>
            <g>
                <path d="M113.153,52.0514C113.153,51.1542 112.724,50.3413 111.723,50.3413C110.772,50.3413 110.047,51.1887 109.86,52.0514L113.153,52.0514ZM115.362,56.503C114.346,57.3657 112.793,57.7951 111.412,57.7951C108.253,57.7951 106.823,55.5521 106.823,53.3282C106.823,50.7056 108.79,48.4779 111.497,48.4779C114.81,48.4779 115.845,50.8244 115.845,53.8113L109.825,53.8113C109.825,54.4823 110.254,55.6211 111.911,55.6211C112.965,55.6211 113.552,55.3105 114.361,54.7584L115.362,56.503Z" style="fill:black;fill-rule:nonzero;"/>
            </g>
            <g>
                <path d="M117.589,48.7884L120.592,48.7884L120.592,50.0154L120.626,50.0154C121.075,49.2716 121.661,48.5469 122.835,48.5469C123.161,48.5469 123.506,48.5814 123.816,48.6504L123.421,51.6181C123.126,51.5338 122.8,51.4456 122.352,51.4456C121.351,51.4456 120.572,52.293 120.572,52.4655L120.523,57.4845L117.52,57.4845L117.589,48.7884Z" style="fill:black;fill-rule:nonzero;"/>
            </g>
            <g>
                <path d="M124.56,44.5439L127.562,44.5439L127.493,57.4845L124.491,57.4845L124.56,44.5439Z" style="fill:black;fill-rule:nonzero;"/>
            </g>
            <g>
                <path d="M134.188,53.4816C134.065,53.5007 133.912,53.5353 133.67,53.5506C132.911,53.6043 131.926,53.9839 131.926,54.9501C131.926,55.5367 132.497,55.8281 132.98,55.8281C133.582,55.8281 134.188,55.4485 134.188,55.2607L134.188,53.4816ZM129.702,49.9272C131.201,49.0147 132.547,48.4779 134.326,48.4779C135.929,48.4779 136.983,49.2716 136.983,50.928L136.983,55.138C136.983,55.4677 137.102,55.7246 137.482,55.7246C137.623,55.7246 137.758,55.6901 137.846,55.6211L138.172,57.2622C137.777,57.5727 136.377,57.7951 135.86,57.7951C135.051,57.7951 134.498,57.4845 134.376,56.8481C133.705,57.381 132.773,57.7951 131.857,57.7951C130.288,57.7951 129.131,56.8634 129.131,55.2952C129.131,53.5007 130.131,52.8259 131.995,52.3428C132.531,52.2048 133.375,52.0667 134.188,51.9977L134.188,51.6718C134.188,50.9816 133.789,50.6519 133.222,50.6519C132.305,50.6519 131.496,51.204 130.718,51.6028L129.702,49.9272Z" style="fill:black;fill-rule:nonzero;"/>
            </g>
            <g>
                <path d="M139.621,48.7884L142.623,48.7884L142.623,49.7393C143.313,49.0645 144.368,48.4779 145.438,48.4779C147.282,48.4779 148.283,49.4978 148.283,51.8789C148.283,53.6541 148.267,55.5712 148.248,57.4845L145.246,57.4845C145.265,55.8128 145.28,54.1219 145.28,52.3275C145.28,51.6181 145.093,51.066 144.195,51.066C143.712,51.066 143.022,51.4801 142.623,51.8597L142.554,57.4845L139.552,57.4845L139.621,48.7884Z" style="fill:black;fill-rule:nonzero;"/>
            </g>
            <g>
                <path d="M156.584,51.135C156.273,50.7899 155.633,50.6519 155.184,50.6519C153.789,50.6519 153.167,51.7753 153.167,53.102C153.167,54.2753 153.616,55.3105 154.962,55.3105C155.529,55.3105 156.082,55.069 156.515,54.7085L156.584,51.135ZM159.413,57.4845L156.565,57.4845L156.565,56.8634C155.943,57.3657 155.1,57.7453 154.134,57.7951C151.492,57.7951 150.165,55.5176 150.165,53.3972C150.165,50.6864 151.787,48.4779 154.582,48.4779C155.288,48.4779 155.978,48.6504 156.549,48.9456L156.584,44.5439L159.483,44.5439L159.413,57.4845Z" style="fill:black;fill-rule:nonzero;"/>
            </g>
            <g>
                <path d="M1.01259,45.1574C1.01259,45.1574 0.870722,43.524 1.0586,42.6728C1.35384,41.3461 1.83312,40.0732 2.51178,38.9267C4.41358,35.7251 7.1244,33.2827 10.0959,31.1125C12.895,29.0727 15.97,27.5121 19.141,26.1433C20.8357,25.411 22.5535,24.7016 24.3249,24.1917C27.3463,23.3175 30.3945,22.5008 33.4773,21.8604C35.7395,21.3927 41.234,20.5491 46.3872,20.9441C48.7529,21.1204 50.8925,21.6227 52.7252,23.2101C54.374,24.6403 55.4667,26.3734 55.808,28.5321C56.3026,31.6723 56.0687,34.4867 55.3479,37.8685C54.4353,42.159 52.5182,46.0968 50.1985,49.8275C48.5612,52.4732 46.6441,54.8734 44.2707,56.9171C41.0001,59.7276 34.5355,60.7513 26.89,60.2567C24.5626,60.1072 22.2621,59.6241 19.9768,59.1716C17.3082,58.6425 14.7047,57.8258 12.224,56.7024C9.82755,55.6134 7.61135,54.2408 5.64821,52.4463C4.17202,51.0967 1.39602,49.0415 1.01259,45.1574Z" style="fill:rgb(254,254,254);fill-rule:nonzero;"/>
            </g>
            <g>
                <path d="M43.1319,47.0745C42.5951,47.3506 40.2639,47.9411 39.1136,48.3398C38.6957,48.4855 37.2847,49.2792 36.9281,48.7194C35.2449,46.0776 33.4466,44.1337 31.5908,41.6375C30.5019,40.1729 30.5249,40.215 29.4359,38.8002C28.5502,37.6499 28.4084,36.8524 28.4084,36.8524C29.4628,35.2267 30.6744,33.6086 31.2802,30.384C32.8868,33.4591 34.3285,37.6307 35.8813,41.3807C37.1965,44.5516 37.0815,44.5746 37.8982,45.5178C38.0937,45.7479 38.2509,45.8897 38.5385,45.9779C39.3245,46.2233 40.4211,46.07 41.441,46.1658C41.8053,46.1965 42.1043,46.208 42.4801,46.277C42.7715,46.3345 43.0246,46.3614 43.1856,46.6528C43.27,46.8061 43.2393,47.017 43.1319,47.0745Z" style="fill:black;fill-rule:nonzero;"/>
            </g>
            <g>
                <path d="M14.4095,44.8123C15.4716,44.172 15.4907,44.2257 16.4953,43.5393C18.7345,41.8906 19.325,40.7212 21.0236,37.5924C22.795,34.3371 23.0212,31.841 23.2168,30.94C23.5005,29.6363 23.7996,26.6724 23.8533,26.197C24.0411,24.5981 24.068,22.3742 23.7843,19.5139C22.8679,20.5184 22.0703,22.6733 21.6754,23.6702C20.0382,27.8227 20.8856,28.8004 20.0305,30.6869C19.7161,31.3732 18.0559,32.0059 17.8411,32.0672C17.3887,31.611 17.7606,30.6601 18.6003,29.6977C19.0106,29.2261 18.9953,28.6816 19.0068,28.4285C19.1333,26.4155 19.4439,23.0644 19.6471,22.24C19.6471,22.24 19.7544,21.9065 20.2107,20.8674C20.4753,20.2654 21.0696,19.0806 21.3802,18.5208C22.4844,16.5462 22.5381,16.2279 23.7804,14.5715C24.4552,13.6743 25.0151,13.4289 25.3908,13.3254C26.012,13.1643 26.5603,13.1298 27.2121,13.1298C28.6346,13.126 29.9076,13.9772 30.3983,15.3345C31.0732,17.2172 30.8738,17.0369 31.2764,19.3375C31.7135,21.8336 32.1813,22.01 33.1398,23.2178C34.0026,24.299 35.7356,26.4577 36.7862,27.1824C37.5761,27.7307 37.764,27.8035 38.0515,28.0221C38.9372,28.6931 39.8306,30.7291 39.1251,31.1087C38.8452,31.216 37.2655,30.7751 36.7095,29.0612C36.6022,28.6931 35.843,28.4285 35.3177,28.1179C34.7579,27.7844 34.1751,27.4278 32.5532,26.4117C32.0547,26.1011 31.3377,25.4033 31.1959,25.1387C31.1959,25.1387 31.0272,27.4776 30.985,27.7154C30.0111,32.8494 27.9137,35.8171 27.0395,37.3087C25.8356,39.36 21.292,43.6352 20.1034,44.3867C19.2675,44.9158 17.8642,45.8131 17.243,46.4304C17.0398,46.6336 17.1855,46.9672 17.3312,47.2394C17.4271,47.4196 17.5229,47.711 17.8411,48.2325C17.8948,48.313 18.3358,48.52 18.4278,48.5852C18.9493,48.9495 19.2675,49.4211 18.9531,49.6051C18.9531,49.6358 16.7254,49.632 16.3841,49.5975C16.0544,49.563 15.878,49.6205 15.4256,48.7923C14.7354,47.5385 14.6012,47.3314 13.9034,46.1581C13.7155,45.8399 13.7538,45.6827 13.7807,45.5063C13.8344,45.1766 14.4095,44.8123 14.4095,44.8123Z" style="fill:black;fill-rule:nonzero;"/>
            </g>
            <g>
                <path d="M30.962,6.30485C31.3416,7.67368 31.2649,8.985 30.5632,10.2311C29.3478,12.3898 26.7826,12.4742 25.1531,10.6107C23.6232,8.8623 23.8418,3.91994 27.1316,3.37548C27.1316,3.37548 30.0226,2.92687 30.962,6.30485Z" style="fill:black;fill-rule:nonzero;"/>
            </g>
            <g>
                <path d="M19.4362,31.5381C18.8151,32.1861 17.7645,32.5274 17.4309,32.2053C17.0935,31.8832 17.5728,30.8518 18.1939,30.2038C18.8112,29.5558 19.5896,29.2874 19.9232,29.6095C20.2606,29.9316 20.0574,30.8863 19.4362,31.5381Z" style="fill:black;fill-rule:nonzero;"/>
            </g>
        </g>
    </g>
</svg>
