<?xml version="1.0" standalone="no"?>
<!DOCTYPE svg PUBLIC "-//W3C//DTD SVG 1.1//EN" "http://www.w3.org/Graphics/SVG/1.1/DTD/svg11.dtd">
<svg width="317px" height="64px" version="1.1" xmlns="http://www.w3.org/2000/svg" xmlns:xlink="http://www.w3.org/1999/xlink" xml:space="preserve" style="fill-rule:evenodd;clip-rule:evenodd;stroke-linejoin:round;stroke-miterlimit:1.41421;">
    <g>
        <g>
            <g>
                <path d="M2.19892,45.2272C2.19892,45.2272 2.05391,43.5576 2.24595,42.6875C2.54774,41.3314 3.03765,40.0302 3.73136,38.8584C5.67533,35.5858 8.44628,33.0892 11.4837,30.8708C14.3448,28.7858 17.4881,27.1906 20.7294,25.7914C22.4617,25.0429 24.2175,24.3178 26.0282,23.7965C29.1166,22.9029 32.2325,22.0681 35.3836,21.4136C37.696,20.9354 43.3123,20.0732 48.5799,20.4769C50.9981,20.6572 53.185,21.1706 55.0585,22.7932C56.7438,24.2551 57.8608,26.0266 58.2096,28.2332C58.7152,31.4431 58.4761,34.3198 57.7393,37.7766C56.8065,42.1623 54.8468,46.1875 52.4757,50.0009C50.8021,52.7052 48.8425,55.1587 46.4164,57.2477C43.0733,60.1206 36.4653,61.167 28.6502,60.6614C26.2712,60.5086 23.9197,60.0147 21.5838,59.5523C18.8559,59.0114 16.1947,58.1766 13.6589,57.0282C11.2094,55.9152 8.94403,54.512 6.93735,52.6778C5.42842,51.2982 2.59085,49.1975 2.19892,45.2272Z" style="fill:rgb(252,221,27);fill-rule:nonzero;"/>
            </g>
            <g>
                <path d="M45.2524,47.1869C44.7037,47.4691 42.3208,48.0726 41.145,48.4802C40.7178,48.6292 39.2755,49.4405 38.911,48.8683C37.1904,46.1679 35.3522,44.1808 33.4553,41.6293C32.3422,40.1321 32.3657,40.1753 31.2527,38.729C30.3473,37.5532 30.2023,36.738 30.2023,36.738C31.2801,35.0763 32.5186,33.4223 33.1378,30.1262C34.78,33.2695 36.2537,37.5337 37.841,41.3667C39.1853,44.608 39.0677,44.6315 39.9025,45.5956C40.1024,45.8308 40.2631,45.9758 40.5571,46.066C41.3605,46.3168 42.4814,46.16 43.524,46.258C43.8963,46.2894 44.202,46.3011 44.5861,46.3717C44.884,46.4305 45.1427,46.4579 45.3073,46.7558C45.3935,46.9125 45.3621,47.1281 45.2524,47.1869Z" style="fill:black;fill-rule:nonzero;"/>
            </g>
            <g>
                <path d="M15.8929,44.8745C16.9786,44.22 16.9982,44.2748 18.025,43.5733C20.3139,41.888 20.9175,40.6926 22.6537,37.4945C24.4644,34.167 24.6957,31.6155 24.8956,30.6945C25.1856,29.3619 25.4913,26.3323 25.5462,25.8463C25.7382,24.212 25.7657,21.9388 25.4756,19.015C24.5389,20.0418 23.7237,22.2445 23.32,23.2635C21.6465,27.5081 22.5126,28.5075 21.6386,30.4358C21.3172,31.1374 19.6202,31.784 19.4007,31.8468C18.9382,31.3804 19.3184,30.4084 20.1767,29.4246C20.5961,28.9426 20.5804,28.386 20.5922,28.1273C20.7215,26.0697 21.039,22.6442 21.2467,21.8016C21.2467,21.8016 21.3564,21.4606 21.8228,20.3985C22.0933,19.7832 22.7008,18.5721 23.0182,17.9999C24.147,15.9814 24.2018,15.6561 25.4717,13.963C26.1615,13.0459 26.7337,12.7951 27.1178,12.6892C27.7527,12.5246 28.3132,12.4893 28.9795,12.4893C30.4335,12.4854 31.7347,13.3555 32.2364,14.7429C32.9262,16.6673 32.7224,16.4831 33.1339,18.8347C33.5807,21.3861 34.0589,21.5664 35.0387,22.801C35.9205,23.9063 37.6921,26.1128 38.766,26.8536C39.5733,27.414 39.7654,27.4885 40.0593,27.7119C40.9647,28.3978 41.8779,30.4789 41.1567,30.8669C40.8706,30.9767 39.2559,30.5259 38.6876,28.774C38.5778,28.3978 37.8018,28.1273 37.2649,27.8099C36.6926,27.4689 36.0969,27.1044 34.4391,26.0658C33.9295,25.7483 33.1966,25.035 33.0516,24.7646C33.0516,24.7646 32.8792,27.1554 32.8361,27.3984C31.8406,32.6463 29.6967,35.6798 28.8031,37.2044C27.5724,39.3013 22.9281,43.6713 21.7131,44.4395C20.8587,44.9803 19.4242,45.8974 18.7893,46.5284C18.5816,46.7362 18.7305,47.0771 18.8794,47.3554C18.9774,47.5396 19.0754,47.8375 19.4007,48.3705C19.4556,48.4528 19.9063,48.6645 20.0004,48.7311C20.5334,49.1034 20.8587,49.5855 20.5373,49.7736C20.5373,49.805 18.2602,49.801 17.9114,49.7658C17.5743,49.7305 17.394,49.7893 16.9316,48.9427C16.2261,47.6611 16.0889,47.4495 15.3756,46.2502C15.1835,45.9249 15.2227,45.7642 15.2502,45.5839C15.305,45.2468 15.8929,44.8745 15.8929,44.8745Z" style="fill:black;fill-rule:nonzero;"/>
            </g>
            <g>
                <path d="M32.8125,5.513C33.2006,6.91219 33.1222,8.25259 32.4049,9.52636C31.1625,11.7329 28.5405,11.8191 26.8748,9.91437C25.311,8.12717 25.5344,3.0752 28.8972,2.51865C28.8972,2.51865 31.8523,2.0601 32.8125,5.513Z" style="fill:black;fill-rule:nonzero;"/>
            </g>
            <g>
                <path d="M21.0311,31.3059C20.3962,31.9682 19.3223,32.3171 18.9813,31.9878C18.6364,31.6586 19.1264,30.6043 19.7613,29.942C20.3923,29.2796 21.1879,29.0053 21.5289,29.3345C21.8738,29.6637 21.6661,30.6396 21.0311,31.3059Z" style="fill:black;fill-rule:nonzero;"/>
            </g>
            <g>
                <path d="M66.3774,35.0057L69.0347,35.0057L70.2105,40.9513L70.234,40.9513L71.692,35.0057L74.3453,35.0057L75.9562,43.1382L73.8397,43.1382L72.9461,37.3338L72.9226,37.3338L71.4803,43.1382L69.0464,43.1382L67.6943,37.3338L67.6708,37.3338L66.495,43.1382L64.4295,43.1382L66.3774,35.0057Z" style="fill:black;fill-rule:nonzero;"/>
            </g>
            <g>
                <path d="M80.0989,41.7978C81.0748,41.7978 81.3687,40.9513 81.3687,40.1753C81.3687,39.3992 81.0748,38.5527 80.0989,38.5527C79.1229,38.5527 78.829,39.3992 78.829,40.1753C78.829,40.9513 79.1229,41.7978 80.0989,41.7978ZM80.0989,37.0045C82.2858,37.0045 83.4146,38.392 83.4146,40.1753C83.4146,41.9625 82.2858,43.3499 80.0989,43.3499C77.9119,43.3499 76.7831,41.9625 76.7831,40.1753C76.7831,38.392 77.9119,37.0045 80.0989,37.0045Z" style="fill:black;fill-rule:nonzero;"/>
            </g>
            <g>
                <path d="M86.601,41.5392C86.8126,41.7743 87.2477,41.8684 87.5534,41.8684C88.5057,41.8684 88.929,41.1041 88.929,40.1988C88.929,39.3992 88.6233,38.6977 87.7062,38.6977C87.3182,38.6977 86.9419,38.8584 86.648,39.1053L86.601,41.5392ZM84.6962,34.3237L86.7421,34.3237L86.7068,37.5572C87.0713,37.2279 87.7297,37.0045 88.2706,37.0045C90.0695,37.0045 90.9749,38.5527 90.9749,39.9989C90.9749,41.8449 89.8697,43.3499 87.9649,43.3499C87.3417,43.3499 86.8479,43.15 86.5775,42.8678L86.5539,42.8678L86.5539,43.1382L84.6374,43.1382L84.6962,34.3237Z" style="fill:black;fill-rule:nonzero;"/>
            </g>
            <g>
                <path d="M92.2683,34.5824L94.3141,34.5824L94.3141,36.2756L92.2683,36.2756L92.2683,34.5824ZM92.2683,37.2162L94.3141,37.2162L94.2671,43.1382L92.2212,43.1382L92.2683,37.2162Z" style="fill:black;fill-rule:nonzero;"/>
            </g>
            <g>
                <path d="M95.7486,34.3237L97.7945,34.3237L97.7474,43.1382L95.7016,43.1382L95.7486,34.3237Z" style="fill:black;fill-rule:nonzero;"/>
            </g>
            <g>
                <path d="M99.2289,34.5824L101.275,34.5824L101.275,36.2756L99.2289,36.2756L99.2289,34.5824ZM99.2289,37.2162L101.275,37.2162L101.228,43.1382L99.1819,43.1382L99.2289,37.2162Z" style="fill:black;fill-rule:nonzero;"/>
            </g>
            <g>
                <path d="M102.019,37.2162L102.89,37.2162L102.933,35.2056L104.908,35.2056L104.861,37.2162L106.542,37.2162L106.507,38.6977L104.826,38.6977C104.826,39.5168 104.767,40.3869 104.767,40.8925C104.767,41.4098 104.896,41.6568 105.355,41.6568C105.637,41.6568 105.872,41.5157 106.107,41.3746L106.554,42.762C105.954,43.1265 105.225,43.3499 104.532,43.3499C102.874,43.3499 102.796,42.3034 102.796,40.9395C102.796,40.2105 102.85,39.4815 102.85,38.6977L101.972,38.6977L102.019,37.2162Z" style="fill:black;fill-rule:nonzero;"/>
            </g>
            <g>
                <path d="M111.481,39.4345C111.481,38.8231 111.187,38.2744 110.505,38.2744C109.858,38.2744 109.364,38.8466 109.235,39.4345L111.481,39.4345ZM111.151,34.5589L112.139,35.6289L109.646,36.5342L109.106,35.9463L111.151,34.5589ZM112.986,42.468C112.292,43.0559 111.234,43.3499 110.293,43.3499C108.141,43.3499 107.166,41.8214 107.166,40.3046C107.166,38.5213 108.506,37.0045 110.352,37.0045C112.609,37.0045 113.315,38.6036 113.315,40.6338L109.211,40.6338C109.211,41.0924 109.505,41.8684 110.634,41.8684C111.351,41.8684 111.751,41.6568 112.304,41.2805L112.986,42.468Z" style="fill:black;fill-rule:nonzero;"/>
            </g>
            <g>
                <path d="M120.229,41.5392C120.44,41.7743 120.875,41.8684 121.181,41.8684C122.133,41.8684 122.557,41.1041 122.557,40.1988C122.557,39.3992 122.251,38.6977 121.334,38.6977C120.946,38.6977 120.57,38.8584 120.276,39.1053L120.229,41.5392ZM118.3,37.2162L120.24,37.2162L120.24,37.6395C120.664,37.2985 121.24,37.0398 121.898,37.0045C123.693,37.0045 124.599,38.5527 124.599,39.9989C124.599,41.8449 123.497,43.3499 121.592,43.3499C121.11,43.3499 120.64,43.2323 120.252,43.0324L120.229,46.0973L118.253,46.0973L118.3,37.2162Z" style="fill:black;fill-rule:nonzero;"/>
            </g>
            <g>
                <path d="M125.896,34.5824L127.942,34.5824L127.942,36.2756L125.896,36.2756L125.896,34.5824ZM125.896,37.2162L127.942,37.2162L127.895,43.1382L125.849,43.1382L125.896,37.2162Z" style="fill:black;fill-rule:nonzero;"/>
            </g>
            <g>
                <path d="M133.362,39.4345C133.362,38.8231 133.068,38.2744 132.386,38.2744C131.74,38.2744 131.246,38.8466 131.116,39.4345L133.362,39.4345ZM133.033,34.5589L134.021,35.6289L131.528,36.5342L130.987,35.9463L133.033,34.5589ZM134.863,42.468C134.173,43.0559 133.115,43.3499 132.175,43.3499C130.023,43.3499 129.047,41.8214 129.047,40.3046C129.047,38.5213 130.387,37.0045 132.233,37.0045C134.487,37.0045 135.192,38.6036 135.192,40.6338L131.093,40.6338C131.093,41.0924 131.387,41.8684 132.516,41.8684C133.233,41.8684 133.633,41.6568 134.181,41.2805L134.863,42.468Z" style="fill:black;fill-rule:nonzero;"/>
            </g>
            <g>
                <path d="M135.655,37.2162L136.525,37.2162L136.572,35.2056L138.547,35.2056L138.5,37.2162L140.178,37.2162L140.146,38.6977L138.465,38.6977C138.465,39.5168 138.406,40.3869 138.406,40.8925C138.406,41.4098 138.536,41.6568 138.994,41.6568C139.276,41.6568 139.511,41.5157 139.747,41.3746L140.193,42.762C139.594,43.1265 138.865,43.3499 138.171,43.3499C136.513,43.3499 136.431,42.3034 136.431,40.9395C136.431,40.2105 136.49,39.4815 136.49,38.6977L135.608,38.6977L135.655,37.2162Z" style="fill:black;fill-rule:nonzero;"/>
            </g>
            <g>
                <path d="M144.199,41.7978C145.175,41.7978 145.469,40.9513 145.469,40.1753C145.469,39.3992 145.175,38.5527 144.199,38.5527C143.227,38.5527 142.933,39.3992 142.933,40.1753C142.933,40.9513 143.227,41.7978 144.199,41.7978ZM144.199,37.0045C146.386,37.0045 147.515,38.392 147.515,40.1753C147.515,41.9625 146.386,43.3499 144.199,43.3499C142.016,43.3499 140.887,41.9625 140.887,40.1753C140.887,38.392 142.016,37.0045 144.199,37.0045Z" style="fill:black;fill-rule:nonzero;"/>
            </g>
            <g>
                <path d="M148.788,37.2162L150.834,37.2162L150.834,37.8629C151.305,37.4043 152.022,37.0045 152.747,37.0045C154.005,37.0045 154.687,37.6983 154.687,39.3169C154.687,40.528 154.675,41.8331 154.663,43.1382L152.622,43.1382C152.629,41.9977 152.641,40.8455 152.641,39.6226C152.641,39.1406 152.516,38.7682 151.904,38.7682C151.575,38.7682 151.105,39.0465 150.834,39.3052L150.787,43.1382L148.741,43.1382L148.788,37.2162Z" style="fill:black;fill-rule:nonzero;"/>
            </g>
            <g>
                <path d="M156.196,37.2162L158.242,37.2162L158.242,37.8629C158.708,37.4043 159.429,37.0045 160.158,37.0045C161.412,37.0045 162.094,37.6983 162.094,39.3169C162.094,40.528 162.083,41.8331 162.071,43.1382L160.025,43.1382C160.037,41.9977 160.053,40.8455 160.053,39.6226C160.053,39.1406 159.919,38.7682 159.308,38.7682C158.983,38.7682 158.508,39.0465 158.242,39.3052L158.195,43.1382L156.149,43.1382L156.196,37.2162Z" style="fill:black;fill-rule:nonzero;"/>
            </g>
            <g>
                <path d="M167.55,39.4345C167.55,38.8231 167.256,38.2744 166.578,38.2744C165.931,38.2744 165.438,38.8466 165.308,39.4345L167.55,39.4345ZM169.055,42.468C168.361,43.0559 167.307,43.3499 166.363,43.3499C164.215,43.3499 163.239,41.8214 163.239,40.3046C163.239,38.5213 164.579,37.0045 166.425,37.0045C168.679,37.0045 169.384,38.6036 169.384,40.6338L165.285,40.6338C165.285,41.0924 165.579,41.8684 166.707,41.8684C167.421,41.8684 167.821,41.6568 168.373,41.2805L169.055,42.468Z" style="fill:black;fill-rule:nonzero;"/>
            </g>
            <g>
                <path d="M174.785,41.3275C175.279,41.4804 176.086,41.6803 176.662,41.6803C177.321,41.6803 178.015,41.5509 178.015,40.7867C178.015,40.0342 177.062,39.9636 176.114,39.6814C175.157,39.3992 174.197,38.9054 174.197,37.3338C174.197,35.5818 175.957,34.7705 177.497,34.7705C178.403,34.7705 179.249,34.9822 180.084,35.2997L179.484,36.8047C178.944,36.6048 178.203,36.4637 177.768,36.4637C176.757,36.4637 176.38,36.8282 176.38,37.3455C176.38,37.6747 176.619,37.9569 177.556,38.1568C179.637,38.6271 180.202,39.458 180.202,40.5985C180.202,42.6091 178.591,43.3734 176.78,43.3734C175.937,43.3734 175.056,43.1853 174.256,42.9148L174.785,41.3275Z" style="fill:black;fill-rule:nonzero;"/>
            </g>
            <g>
                <path d="M185.446,37.2162L187.492,37.2162L187.444,43.1382L185.399,43.1382L185.399,42.4916C184.928,42.9501 184.211,43.3499 183.486,43.3499C182.224,43.3499 181.546,42.6562 181.546,41.0336C181.546,39.8225 181.558,38.5213 181.569,37.2162L183.611,37.2162C183.6,38.3567 183.588,39.5051 183.588,40.7279C183.588,41.21 183.717,41.5862 184.329,41.5862C184.658,41.5862 185.128,41.304 185.399,41.0453L185.446,37.2162Z" style="fill:black;fill-rule:nonzero;"/>
            </g>
            <g>
                <path d="M188.942,34.5824L190.984,34.5824L190.984,36.2756L188.942,36.2756L188.942,34.5824ZM188.942,37.2162L190.984,37.2162L190.937,43.1382L188.895,43.1382L188.942,37.2162Z" style="fill:black;fill-rule:nonzero;"/>
            </g>
            <g>
                <path d="M192.5,41.6097C192.928,41.7743 193.668,41.9389 194.17,41.9389C194.464,41.9389 194.852,41.7626 194.852,41.4686C194.852,41.21 194.746,41.1159 193.711,40.8219C192.712,40.5398 192.105,40.0694 192.105,38.9681C192.105,37.5454 193.441,37.0045 194.687,37.0045C195.699,37.0045 196.557,37.2397 196.792,37.3926L196.416,38.6585C196.016,38.5527 195.546,38.4155 194.97,38.4155C194.656,38.4155 194.217,38.5448 194.217,38.8819C194.217,39.1288 194.323,39.2817 194.97,39.411C196.122,39.6462 196.968,40.0224 196.968,41.3393C196.968,42.8678 195.64,43.3499 194.205,43.3499C193.327,43.3499 192.328,43.103 192.046,42.9619L192.5,41.6097Z" style="fill:black;fill-rule:nonzero;"/>
            </g>
            <g>
                <path d="M198.16,41.6097C198.579,41.7743 199.32,41.9389 199.826,41.9389C200.119,41.9389 200.507,41.7626 200.507,41.4686C200.507,41.21 200.402,41.1159 199.367,40.8219C198.371,40.5398 197.76,40.0694 197.76,38.9681C197.76,37.5454 199.097,37.0045 200.343,37.0045C201.354,37.0045 202.212,37.2397 202.448,37.3926L202.071,38.6585C201.672,38.5527 201.201,38.4155 200.625,38.4155C200.308,38.4155 199.873,38.5448 199.873,38.8819C199.873,39.1288 199.978,39.2817 200.625,39.411C201.777,39.6462 202.624,40.0224 202.624,41.3393C202.624,42.8678 201.295,43.3499 199.861,43.3499C198.979,43.3499 197.983,43.103 197.701,42.9619L198.16,41.6097Z" style="fill:black;fill-rule:nonzero;"/>
            </g>
            <g>
                <path d="M207.715,39.4345C207.715,38.8231 207.421,38.2744 206.739,38.2744C206.092,38.2744 205.599,38.8466 205.469,39.4345L207.715,39.4345ZM209.22,42.468C208.526,43.0559 207.468,43.3499 206.528,43.3499C204.376,43.3499 203.404,41.8214 203.404,40.3046C203.404,38.5213 204.744,37.0045 206.586,37.0045C208.844,37.0045 209.549,38.6036 209.549,40.6338L205.446,40.6338C205.446,41.0924 205.74,41.8684 206.868,41.8684C207.586,41.8684 207.985,41.6568 208.538,41.2805L209.22,42.468Z" style="fill:black;fill-rule:nonzero;"/>
            </g>
            <g>
                <path d="M67.5767,50.4085C66.9418,49.9617 66.2598,49.7971 65.472,49.7971C63.579,49.7971 62.2386,51.3021 62.2386,53.1795C62.2386,55.0607 63.579,56.5658 65.472,56.5658C66.1893,56.5658 66.93,56.2953 67.565,55.9308L67.9647,56.6481C67.2357,57.0713 66.3304,57.4123 65.472,57.4123C63.0617,57.4123 61.1569,55.8368 61.1569,53.1795C61.1569,50.6907 63.0617,48.9506 65.472,48.9506C66.4362,48.9506 67.2122,49.1857 68,49.609L67.5767,50.4085Z" style="fill:black;fill-rule:nonzero;"/>
            </g>
            <g>
                <path d="M72.5385,54.1907C70.9042,54.4023 70.0576,54.708 70.0576,55.7074C70.0576,56.3659 70.4574,56.7069 71.1041,56.7069C71.6802,56.7069 72.127,56.2953 72.4915,55.8485L72.5385,54.1907ZM74.5374,56.989C74.2082,57.2477 73.8554,57.4123 73.4439,57.4123C72.9148,57.4123 72.6208,56.9302 72.5738,56.4364C72.127,56.989 71.5626,57.4123 70.8101,57.4123C69.7794,57.4123 69.1209,56.7069 69.1209,55.7192C69.1209,54.0613 71.2569,53.6733 72.5385,53.6263C72.5503,53.3794 72.5621,53.1325 72.5621,52.8855C72.5621,52.3839 72.2916,52.0076 71.6685,52.0076C71.2099,52.0076 70.8336,52.1722 69.9753,52.815L69.5873,52.2075C70.7631,51.4432 71.1393,51.2316 71.9859,51.2316C72.9618,51.2316 73.4556,51.8077 73.4556,52.7131C73.4556,53.8144 73.3616,54.8373 73.3616,55.872C73.3616,56.2953 73.4204,56.7069 73.7849,56.7069C73.9848,56.7069 74.1258,56.6128 74.2787,56.507L74.5374,56.989Z" style="fill:black;fill-rule:nonzero;"/>
            </g>
            <g>
                <path d="M75.7014,51.3962L76.642,51.3962L76.6068,52.3368L76.6303,52.3368C77.1241,51.6314 77.9236,51.2316 78.6174,51.2316C79.9695,51.2316 80.4046,51.9253 80.4046,53.007C80.4046,53.4499 80.3928,53.8967 80.3928,54.3435L80.3693,57.2477L79.4287,57.2477L79.4522,54.6139C79.4522,54.0966 79.4639,53.5793 79.4639,53.007C79.4639,52.3682 79.0406,52.0782 78.394,52.0782C77.7825,52.0782 77.2417,52.4309 76.642,53.156L76.595,57.2477L75.6583,57.2477L75.7014,51.3962Z" style="fill:black;fill-rule:nonzero;"/>
            </g>
            <g>
                <path d="M82.8071,51.3962L82.8306,49.2328L83.7673,49.2328L83.7438,51.3962L85.3429,51.3962L85.3429,52.1017L83.732,52.1017L83.7085,54.4964C83.6968,55.1548 83.6968,55.5899 83.6968,55.8838C83.6968,56.3659 83.8379,56.6363 84.2376,56.6363C84.5551,56.6363 84.9549,56.4364 85.1783,56.2953L85.484,56.9067C85.096,57.1654 84.5316,57.4123 84.0142,57.4123C83.1089,57.4123 82.7561,56.8479 82.7561,55.9191C82.7561,55.5311 82.7561,55.049 82.7679,54.2377L82.7914,52.1017L81.7959,52.1017L81.7959,51.3962L82.8071,51.3962Z" style="fill:black;fill-rule:nonzero;"/>
            </g>
            <g>
                <path d="M88.9055,56.7069C89.7874,56.7069 90.7397,55.9426 90.7397,54.32C90.7397,52.7013 89.952,51.9371 88.9996,51.9371C88.1177,51.9371 87.1653,52.7013 87.1653,54.32C87.1653,55.9426 87.9531,56.7069 88.9055,56.7069ZM89.0113,51.2316C90.728,51.2316 91.7509,52.4074 91.7509,54.32C91.7509,55.8368 90.7515,57.4123 88.8938,57.4123C87.1771,57.4123 86.1581,56.2483 86.1581,54.32C86.1581,52.8072 87.1536,51.2316 89.0113,51.2316Z" style="fill:black;fill-rule:nonzero;"/>
            </g>
            <g>
                <path d="M93.397,51.3962L94.3377,51.3962L94.3024,52.3368L94.3259,52.3368C94.8197,51.6314 95.6193,51.2316 96.313,51.2316C97.6651,51.2316 98.1002,51.9253 98.1002,53.007C98.1002,53.4499 98.0884,53.8967 98.0884,54.3435L98.0649,57.2477L97.1243,57.2477L97.1478,54.6139C97.1478,54.0966 97.1596,53.5793 97.1596,53.007C97.1596,52.3682 96.7363,52.0782 96.0896,52.0782C95.4782,52.0782 94.9373,52.4309 94.3377,53.156L94.2906,57.2477L93.3539,57.2477L93.397,51.3962Z" style="fill:black;fill-rule:nonzero;"/>
            </g>
            <g>
                <path d="M107.389,52.9443C106.989,52.2545 106.531,52.0076 105.966,52.0076C104.92,52.0076 104.214,53.156 104.214,54.32C104.214,55.9073 104.967,56.6363 105.766,56.6363C106.519,56.6363 107.13,56.0484 107.354,55.5546L107.389,52.9443ZM107.424,48.4332L108.388,48.4332L108.294,57.2477L107.342,57.2477L107.365,56.4599L107.342,56.4599C107.071,56.9655 106.378,57.4123 105.555,57.4123C104.559,57.4123 103.207,56.6598 103.207,54.3553C103.207,52.5837 104.52,51.2316 105.849,51.2316C106.542,51.2316 107.13,51.5843 107.354,51.9959L107.377,51.9959L107.424,48.4332Z" style="fill:black;fill-rule:nonzero;"/>
            </g>
            <g>
                <path d="M113.973,53.5557C113.973,52.7248 113.621,51.9371 112.668,51.9371C111.786,51.9371 111.222,52.7601 111.073,53.5557L113.973,53.5557ZM110.991,54.1907L110.991,54.3905C110.991,55.6134 111.445,56.7069 112.645,56.7069C113.315,56.7069 113.809,56.3188 114.314,55.8603L114.773,56.3659C114.173,56.9655 113.409,57.4123 112.539,57.4123C110.92,57.4123 109.98,56.2365 109.98,54.32C109.98,52.7131 111.085,51.2316 112.656,51.2316C114.232,51.2316 114.914,52.4309 114.914,54.0025L114.914,54.1907L110.991,54.1907Z" style="fill:black;fill-rule:nonzero;"/>
            </g>
            <g>
                <path d="M126.719,53.0776L126.672,56.8127C125.743,57.2477 124.767,57.4123 124.026,57.4123C121.616,57.4123 119.715,55.8368 119.715,53.1795C119.715,50.6907 121.616,48.9506 124.026,48.9506C124.885,48.9506 125.778,49.1504 126.543,49.5267L126.155,50.3262C125.625,50.0205 124.849,49.7971 124.026,49.7971C122.133,49.7971 120.797,51.3021 120.797,53.1795C120.797,55.0607 122.133,56.5658 124.026,56.5658C124.591,56.5658 125.214,56.4247 125.661,56.2248L125.708,53.0776L126.719,53.0776Z" style="fill:black;fill-rule:nonzero;"/>
            </g>
            <g>
                <path d="M132.316,53.5557C132.316,52.7248 131.963,51.9371 131.011,51.9371C130.129,51.9371 129.564,52.7601 129.411,53.5557L132.316,53.5557ZM129.329,54.1907L129.329,54.3905C129.329,55.6134 129.788,56.7069 130.987,56.7069C131.657,56.7069 132.151,56.3188 132.657,55.8603L133.115,56.3659C132.516,56.9655 131.751,57.4123 130.881,57.4123C129.259,57.4123 128.322,56.2365 128.322,54.32C128.322,52.7131 129.423,51.2316 130.999,51.2316C132.574,51.2316 133.256,52.4309 133.256,54.0025L133.256,54.1907L129.329,54.1907Z" style="fill:black;fill-rule:nonzero;"/>
            </g>
            <g>
                <path d="M134.906,51.3962L135.843,51.3962L135.808,52.3368L135.831,52.3368C136.325,51.6314 137.125,51.2316 137.818,51.2316C139.17,51.2316 139.606,51.9253 139.606,53.007C139.606,53.4499 139.594,53.8967 139.594,54.3435L139.57,57.2477L138.63,57.2477L138.653,54.6139C138.653,54.0966 138.665,53.5793 138.665,53.007C138.665,52.3682 138.242,52.0782 137.595,52.0782C136.984,52.0782 136.443,52.4309 135.843,53.156L135.796,57.2477L134.859,57.2477L134.906,51.3962Z" style="fill:black;fill-rule:nonzero;"/>
            </g>
            <g>
                <path d="M145.202,53.5557C145.202,52.7248 144.85,51.9371 143.897,51.9371C143.015,51.9371 142.451,52.7601 142.298,53.5557L145.202,53.5557ZM142.086,48.8565L143.36,48.8565L144.415,50.5379L143.638,50.5379L142.086,48.8565ZM142.216,54.1907L142.216,54.3905C142.216,55.6134 142.674,56.7069 143.874,56.7069C144.544,56.7069 145.038,56.3188 145.543,55.8603L146.002,56.3659C145.402,56.9655 144.638,57.4123 143.768,57.4123C142.145,57.4123 141.209,56.2365 141.209,54.32C141.209,52.7131 142.31,51.2316 143.885,51.2316C145.461,51.2316 146.143,52.4309 146.143,54.0025L146.143,54.1907L142.216,54.1907Z" style="fill:black;fill-rule:nonzero;"/>
            </g>
            <g>
                <path d="M152.504,51.5138L150.141,57.2477L149.223,57.2477L147.076,51.4903L148.052,51.2316L149.706,56.119L149.729,56.119L151.563,51.2316L152.504,51.5138Z" style="fill:black;fill-rule:nonzero;"/>
            </g>
            <g>
                <path d="M157.43,53.5557C157.43,52.7248 157.078,51.9371 156.125,51.9371C155.244,51.9371 154.679,52.7601 154.53,53.5557L157.43,53.5557ZM154.444,54.1907L154.444,54.3905C154.444,55.6134 154.903,56.7069 156.102,56.7069C156.772,56.7069 157.266,56.3188 157.771,55.8603L158.23,56.3659C157.63,56.9655 156.866,57.4123 155.996,57.4123C154.373,57.4123 153.437,56.2365 153.437,54.32C153.437,52.7131 154.538,51.2316 156.114,51.2316C157.689,51.2316 158.371,52.4309 158.371,54.0025L158.371,54.1907L154.444,54.1907Z" style="fill:black;fill-rule:nonzero;"/>
            </g>
        </g>
    </g>
</svg>
